<svg id="bootstrap-4" xmlns="http://www.w3.org/2000/svg" width="100.639" height="100.647" viewBox="0 0 100.639 100.647">
  <path id="Path_9" data-name="Path 9" d="M0,87.673a12.972,12.972,0,0,0,12.974,12.974H87.665a12.972,12.972,0,0,0,12.974-12.974v-74.7A12.972,12.972,0,0,0,87.665,0H12.974A12.972,12.972,0,0,0,0,12.974v74.7Z" fill="#8812fb" fill-rule="evenodd"/>
  <path id="Path_10" data-name="Path 10" d="M48,48.9V34.65H60.548A19.743,19.743,0,0,1,64,34.945a8.771,8.771,0,0,1,2.949,1.065A5.65,5.65,0,0,1,69,38.148a7.043,7.043,0,0,1,.77,3.5c0,2.564-.77,4.407-2.3,5.545a9.633,9.633,0,0,1-5.889,1.7H48ZM34.6,24.24V85.179H64.128a31.29,31.29,0,0,0,7.978-1.024,21.263,21.263,0,0,0,6.913-3.162,15.584,15.584,0,0,0,4.824-5.5,16.744,16.744,0,0,0,1.794-7.978A16.879,16.879,0,0,0,82.86,57.74a14.658,14.658,0,0,0-8.4-5.676,15.3,15.3,0,0,0,6.192-5.037,13.365,13.365,0,0,0,2.089-7.683,16.294,16.294,0,0,0-1.409-7.167,11.751,11.751,0,0,0-3.972-4.652,17.069,17.069,0,0,0-6.143-2.515,37.708,37.708,0,0,0-7.937-.77H34.6ZM48,74.769V58.035H62.6a11.334,11.334,0,0,1,7,2.007q2.642,2,2.646,6.7a8.352,8.352,0,0,1-.811,3.923A6.466,6.466,0,0,1,69.255,73.1a9.163,9.163,0,0,1-3.162,1.278,18.059,18.059,0,0,1-3.76.385H48Z" transform="translate(-6.26 -4.386)" fill="#fff" fill-rule="evenodd"/>
</svg>
