<svg id="html" xmlns="http://www.w3.org/2000/svg" width="100.314" height="113.53" viewBox="0 0 100.314 113.53">
  <path id="Path_20" data-name="Path 20" d="M0,0,7.051,99.361,50.157,113.53,93.262,99.361,100.313,0ZM0,0" fill="#9a42f1"/>
  <path id="Path_21" data-name="Path 21" d="M276.356,0,269.3,99.361,226.2,113.53V0Zm0,0" transform="translate(-176.042 0)" fill="#8812fb"/>
  <path id="Path_22" data-name="Path 22" d="M144.293,89.3H95l1.2,16.63h46.9L140.235,146.2l-27.274,9.114L85.688,146.2l-.931-13.437h13.3l.266,3.659,14.635,4.856,14.635-4.856,1.2-17.185H83.759L80.7,76h64.526Zm0,0" transform="translate(-62.805 -59.148)" fill="#ececf1"/>
  <g id="Group_18" data-name="Group 18" transform="translate(50.157 16.852)">
    <path id="Path_23" data-name="Path 23" d="M256.334,211l-2.861,40.267L226.2,260.381V246.345l14.635-4.856,1.2-17.185H226.2V211Zm0,0" transform="translate(-226.199 -181.065)" fill="#e2e2e7"/>
    <path id="Path_24" data-name="Path 24" d="M258.462,76l-.931,13.3H226.2V76Zm0,0" transform="translate(-226.199 -76)" fill="#e2e2e7"/>
  </g>
</svg>
