<svg xmlns="http://www.w3.org/2000/svg" width="100.238" height="71.153" viewBox="0 0 100.238 71.153">
  <g id="javascript-programming-language" transform="translate(-20.279 -34.998)">
    <path id="Path_26" data-name="Path 26" d="M32.31,113.843,43.944,106.8c2.24,3.985,4.282,7.352,9.183,7.352,4.691,0,7.661-1.832,7.661-8.985v-48.6H75.083v48.8c0,14.8-8.676,21.535-21.337,21.535-11.436,0-18.07-5.916-21.436-13.057Zm50.534-1.535,11.634-6.733c3.069,5,7.042,8.676,14.085,8.676,5.916,0,9.7-2.958,9.7-7.042,0-4.9-3.874-6.634-10.409-9.493l-3.577-1.535c-10.31-4.394-17.154-9.9-17.154-21.535,0-10.718,8.169-18.887,20.929-18.887,9.084,0,15.619,3.168,20.31,11.436l-11.127,7.141c-2.451-4.394-5.1-6.126-9.183-6.126-4.183,0-6.844,2.649-6.844,6.126,0,4.282,2.649,6.027,8.775,8.676l3.577,1.535c12.154,5.211,18.986,10.52,18.986,22.464,0,12.859-10.112,19.9-23.689,19.9-13.255,0-21.832-6.337-26.016-14.6Zm0,0Z" transform="translate(-12.031 -20.763)" fill="#8812fb" fill-rule="evenodd"/>
  </g>
</svg>
