<svg xmlns="http://www.w3.org/2000/svg" width="100.102" height="112.847" viewBox="0 0 100.102 112.847">
  <g id="node-js" transform="translate(0 -0.002)">
    <path id="Path_4" data-name="Path 4" d="M62.844,79.972c-18.092,0-21.885-8.3-21.885-15.272a1.192,1.192,0,0,1,1.194-1.194H47.5a1.194,1.194,0,0,1,1.176,1.01c.808,5.446,3.205,8.192,14.152,8.192,8.715,0,12.416-1.965,12.416-6.594,0-2.663-1.056-4.638-14.593-5.96-11.323-1.12-18.321-3.609-18.321-12.673,0-8.339,7.035-13.307,18.827-13.307,13.243,0,19.8,4.592,20.627,14.473a1.207,1.207,0,0,1-.321.918,1.239,1.239,0,0,1-.882.386H75.214a1.182,1.182,0,0,1-1.157-.928c-1.295-5.721-4.417-7.558-12.921-7.558-9.514,0-10.616,3.315-10.616,5.795,0,3.012,1.3,3.894,14.143,5.593,12.71,1.69,18.744,4.068,18.744,13,0,9.009-7.512,14.17-20.617,14.17l.055-.055ZM50.069,112.849a8.681,8.681,0,0,1-4.335-1.157l-13.8-8.173c-2.066-1.157-1.056-1.561-.377-1.8A27.9,27.9,0,0,0,37.8,98.872a1.059,1.059,0,0,1,1.029.073l10.607,6.291a1.383,1.383,0,0,0,1.286,0L92.076,81.368a1.3,1.3,0,0,0,.634-1.12V32.538a1.322,1.322,0,0,0-.643-1.139L50.721,7.549a1.269,1.269,0,0,0-1.277,0L8.118,31.4a1.307,1.307,0,0,0-.652,1.13V80.247a1.277,1.277,0,0,0,.643,1.111L19.433,87.9c6.144,3.077,9.909-.551,9.909-4.188v-47.1a1.182,1.182,0,0,1,1.2-1.194H35.78a1.186,1.186,0,0,1,1.194,1.194V83.728c0,8.2-4.472,12.9-12.242,12.9-2.388,0-4.28,0-9.533-2.59L4.335,87.787A8.73,8.73,0,0,1,0,80.247V32.529a8.7,8.7,0,0,1,4.335-7.54L45.726,1.111a9.08,9.08,0,0,1,8.7,0L95.767,25a8.715,8.715,0,0,1,4.335,7.54V80.256a8.76,8.76,0,0,1-4.335,7.54L54.422,111.674a8.724,8.724,0,0,1-4.353,1.157v.018Zm0,0Z" fill="#8812fb" fill-rule="evenodd"/>
  </g>
</svg>
