<svg id="php-programming-language" xmlns="http://www.w3.org/2000/svg" width="130.251" height="66.005" viewBox="0 0 130.251 66.005">
  <path id="Path_27" data-name="Path 27" d="M65.125,66.005c35.965,0,65.125-14.776,65.125-33.008S101.091,0,65.125,0,0,14.776,0,33.008s29.16,33,65.125,33ZM99.511,26.489c-.5-.551-1.813-.827-3.954-.827H92.325l-1.9,9.741h1.855a13.7,13.7,0,0,0,3.328-.35,5.306,5.306,0,0,0,1.94-.859,4.384,4.384,0,0,0,1.219-1.526,10.086,10.086,0,0,0,.9-2.735,8.084,8.084,0,0,0,.17-2.523,1.636,1.636,0,0,0-.329-.922ZM57.833,7.271h7.219a2.126,2.126,0,0,1,2.12,2.12,2.2,2.2,0,0,1-.064.53L65.9,16.144h3.858a23.476,23.476,0,0,1,5.639.594,9.527,9.527,0,0,1,4.166,2.088,6.861,6.861,0,0,1,1.919,3.053l.753-3.89a2.126,2.126,0,0,1,2.1-1.844H98.324a18.036,18.036,0,0,1,6.169.965,11.013,11.013,0,0,1,4.632,3.085,10.317,10.317,0,0,1,2.374,4.971,16.144,16.144,0,0,1-.138,6.063,19.385,19.385,0,0,1-.731,2.661,16.009,16.009,0,0,1-1.113,2.449,17,17,0,0,1-1.495,2.226,17.517,17.517,0,0,1-1.876,2h0a15.482,15.482,0,0,1-2.639,2,14.657,14.657,0,0,1-2.968,1.357,18.162,18.162,0,0,1-3.413.731A32.256,32.256,0,0,1,93.1,44.9H88.615l-1.4,7.038a2.126,2.126,0,0,1-2.1,1.844H77.845a1.8,1.8,0,0,1-.4-.042,2.129,2.129,0,0,1-1.685-2.48l1.251-6.434a2.2,2.2,0,0,1-.53.064H69.143a2.126,2.126,0,0,1-2.12-2.12,2.2,2.2,0,0,1,.064-.53L69.927,27.6a5.161,5.161,0,0,0,.127-1.505c-.011-.106.074-.053.042-.1l-.3-.074a7.727,7.727,0,0,0-1.781-.159H63.991l-3.36,17.416A2.11,2.11,0,0,1,58.554,44.9H51.335a2.126,2.126,0,0,1-2.12-2.12,2.2,2.2,0,0,1,.064-.53l.382-1.982-.318.3h0a15.481,15.481,0,0,1-2.639,2,14.658,14.658,0,0,1-2.968,1.357,18.162,18.162,0,0,1-3.413.731,32.256,32.256,0,0,1-4.028.244H31.8l-1.367,7.038a2.126,2.126,0,0,1-2.1,1.844H21.062a1.8,1.8,0,0,1-.4-.042,2.129,2.129,0,0,1-1.685-2.48L25.44,17.988a2.126,2.126,0,0,1,2.1-1.844H41.53a18.036,18.036,0,0,1,6.169.965,10.6,10.6,0,0,1,5.618,4.41L55.755,9a2.119,2.119,0,0,1,2.078-1.728ZM42.739,26.489c-.5-.551-1.813-.827-3.954-.827H35.541l-1.9,9.741H35.5a13.7,13.7,0,0,0,3.328-.35,5.307,5.307,0,0,0,1.94-.859,4.384,4.384,0,0,0,1.219-1.526,10.086,10.086,0,0,0,.9-2.735,8.084,8.084,0,0,0,.17-2.523,1.725,1.725,0,0,0-.318-.922Z" fill="#8812fb" fill-rule="evenodd"/>
  <path id="Path_28" data-name="Path 28" d="M94.366,23.011q4.15,0,5.523,1.526c.922,1.018,1.134,2.767.657,5.258a8.783,8.783,0,0,1-2.9,5.533c-1.431,1.1-3.625,1.654-6.551,1.654H86.67L89.384,23h4.982ZM56.641,8.86h7.219l-1.728,8.883h6.434q6.074,0,8.374,2.12t1.378,6.858L75.3,42.26H67.962l2.873-14.776c.329-1.685.2-2.83-.36-3.434s-1.77-.922-3.625-.922H61.082L57.362,42.26H50.143l6.5-33.4ZM37.593,23.011q4.15,0,5.523,1.526t.657,5.258a8.783,8.783,0,0,1-2.9,5.533c-1.431,1.1-3.625,1.654-6.551,1.654H29.9L32.611,23h4.982ZM19.87,51.132h7.271l1.728-8.883H35.1a22.126,22.126,0,0,0,6.784-.869,12.788,12.788,0,0,0,4.844-2.9,14.8,14.8,0,0,0,2.957-3.71A14.985,14.985,0,0,0,51.3,30.293q1.161-5.931-1.738-9.254c-1.929-2.2-5-3.318-9.211-3.318H26.357L19.87,51.132Zm56.773,0h7.271l1.728-8.883h6.233a22.126,22.126,0,0,0,6.784-.869,12.788,12.788,0,0,0,4.844-2.9,14.8,14.8,0,0,0,2.957-3.71,14.985,14.985,0,0,0,1.611-4.473q1.161-5.931-1.738-9.254c-1.929-2.2-5-3.318-9.211-3.318H83.13L76.643,51.132Z" transform="translate(1.192 0.531)" fill="#af5dff" fill-rule="evenodd"/>
</svg>
