<svg id="react-js" xmlns="http://www.w3.org/2000/svg" width="100.48" height="89.482" viewBox="0 0 100.48 89.482">
  <path id="Path_5" data-name="Path 5" d="M100.48,44.753c0-6.656-8.332-12.961-21.113-16.878C82.319,14.85,81,4.489,75.229,1.169A8.993,8.993,0,0,0,70.642.025V4.6a4.824,4.824,0,0,1,2.339.532c2.788,1.595,3.99,7.678,3.05,15.5-.229,1.922-.6,3.95-1.047,6.018a99.5,99.5,0,0,0-13-2.232,100.051,100.051,0,0,0-8.521-10.238c6.673-6.215,12.936-9.608,17.2-9.608V0h0c-5.634,0-13,4.015-20.459,10.982C42.742,4.056,35.374.082,29.74.082V4.653c4.236,0,10.524,3.377,17.2,9.543A95.6,95.6,0,0,0,38.49,24.417a96.476,96.476,0,0,0-13.026,2.249c-.474-2.044-.818-4.031-1.063-5.937C23.436,12.9,24.629,6.82,27.393,5.2a4.565,4.565,0,0,1,2.355-.532V.106h0A9.146,9.146,0,0,0,25.12,1.251c-5.757,3.32-7.049,13.664-4.072,26.649C8.292,31.825,0,38.113,0,44.753c0,6.656,8.332,12.961,21.113,16.878-2.952,13.026-1.635,23.387,4.138,26.706a9.022,9.022,0,0,0,4.612,1.145c5.634,0,13-4.015,20.459-10.982,7.458,6.926,14.825,10.9,20.459,10.9a9.146,9.146,0,0,0,4.628-1.145c5.757-3.32,7.049-13.664,4.072-26.649,12.707-3.909,21-10.221,21-16.853Zm-40.9,0a9.363,9.363,0,1,0-9.363,9.363,9.361,9.361,0,0,0,9.363-9.363ZM29.716.082Zm44.1,31.008c-.76,2.641-1.7,5.364-2.764,8.087-.842-1.635-1.717-3.279-2.682-4.914-.94-1.635-1.946-3.238-2.952-4.792,2.911.433,5.716.965,8.4,1.619ZM64.436,52.906C62.841,55.67,61.2,58.295,59.5,60.731c-3.05.27-6.141.409-9.256.409-3.091,0-6.182-.147-9.216-.392-1.7-2.437-3.361-5.037-4.955-7.785q-2.33-4.023-4.26-8.153c1.267-2.748,2.707-5.487,4.236-8.169,1.595-2.764,3.238-5.389,4.939-7.825,3.05-.27,6.141-.409,9.256-.409,3.091,0,6.182.147,9.216.392,1.7,2.437,3.361,5.037,4.955,7.785q2.33,4.023,4.26,8.153c-1.292,2.739-2.7,5.479-4.236,8.169Zm6.615-2.666c1.1,2.748,2.044,5.487,2.829,8.153-2.682.654-5.511,1.21-8.439,1.635,1.006-1.578,2-3.2,2.952-4.857.932-1.635,1.815-3.3,2.658-4.931ZM50.281,72.089a82.888,82.888,0,0,1-5.691-6.55c1.84.082,3.729.147,5.634.147,1.922,0,3.827-.041,5.691-.147a80.938,80.938,0,0,1-5.634,6.55ZM35.047,60.028c-2.911-.433-5.716-.965-8.4-1.619.76-2.641,1.7-5.364,2.764-8.087.842,1.635,1.717,3.279,2.682,4.914s1.946,3.238,2.952,4.792ZM50.175,17.409a82.886,82.886,0,0,1,5.691,6.55c-1.84-.082-3.729-.147-5.634-.147-1.922,0-3.827.041-5.691.147a80.937,80.937,0,0,1,5.634-6.55ZM35.023,29.47c-1.006,1.578-2,3.2-2.952,4.857-.94,1.635-1.823,3.279-2.666,4.914-1.1-2.748-2.044-5.487-2.829-8.153,2.69-.638,5.52-1.186,8.447-1.619ZM16.485,55.114C9.232,52.023,4.546,47.967,4.546,44.753s4.694-7.294,11.939-10.36c1.758-.76,3.688-1.431,5.675-2.069a98.326,98.326,0,0,0,4.612,12.47,96.948,96.948,0,0,0-4.546,12.413c-2.028-.638-3.958-1.333-5.74-2.093ZM27.508,84.38c-2.788-1.595-3.99-7.678-3.05-15.5.229-1.922.6-3.95,1.047-6.018a99.5,99.5,0,0,0,13,2.232,100.052,100.052,0,0,0,8.521,10.238c-6.681,6.206-12.944,9.608-17.2,9.608a4.883,4.883,0,0,1-2.314-.556Zm48.58-15.6c.965,7.825-.229,13.909-2.993,15.528a4.565,4.565,0,0,1-2.355.532c-4.236,0-10.524-3.377-17.2-9.543a95.6,95.6,0,0,0,8.455-10.221,95.18,95.18,0,0,0,13.026-2.257,57.537,57.537,0,0,1,1.071,5.961Zm7.883-13.664c-1.758.76-3.688,1.431-5.675,2.069a98.329,98.329,0,0,0-4.612-12.47A96.948,96.948,0,0,0,78.23,32.3q3.042.957,5.757,2.085c7.253,3.091,11.939,7.147,11.939,10.36-.016,3.222-4.7,7.294-11.955,10.369Z" fill="#8812fb" fill-rule="evenodd"/>
</svg>
