<svg id="wordpress" xmlns="http://www.w3.org/2000/svg" width="100" height="100" viewBox="0 0 100 100">
  <path id="Path_8" data-name="Path 8" d="M50,0a50,50,0,1,0,50,50A50,50,0,0,0,50,0ZM86.564,30.013a31.98,31.98,0,0,1,.277,4.281,39.379,39.379,0,0,1-3.166,14.925L70.947,86.011a41.667,41.667,0,0,0,15.617-56ZM50.732,53.646l-12.5,36.328a41.651,41.651,0,0,0,25.6-.659,3.861,3.861,0,0,1-.3-.578l-12.8-35.091ZM78.125,47.9A21.924,21.924,0,0,0,74.691,36.41c-2.116-3.434-4.093-6.34-4.093-9.774a7.216,7.216,0,0,1,7-7.4c.187,0,.358.024.537.033a41.654,41.654,0,0,0-62.948,7.845c.977.033,1.9.049,2.686.049,4.354,0,11.108-.529,11.108-.529a1.723,1.723,0,0,1,.269,3.434s-2.254.26-4.769.4L39.648,75.6l9.123-27.344-6.494-17.79c-2.246-.13-4.37-.4-4.37-.4-2.246-.13-1.986-3.564.26-3.434,0,0,6.877.529,10.97.529,4.354,0,11.108-.529,11.108-.529a1.723,1.723,0,0,1,.269,3.434s-2.262.26-4.769.4L70.8,75.252l4.3-13.623C77.01,55.68,78.125,51.465,78.125,47.9ZM8.333,50A41.672,41.672,0,0,0,31.82,87.5L11.938,33.04A41.516,41.516,0,0,0,8.333,50ZM50,3A46.718,46.718,0,0,1,68.294,6.7,47.056,47.056,0,0,1,83.236,16.764a46.986,46.986,0,0,1,5.737,6.958A47.08,47.08,0,0,1,93.3,68.294,47.056,47.056,0,0,1,83.236,83.236a46.986,46.986,0,0,1-6.958,5.737A47.08,47.08,0,0,1,31.706,93.3,47.056,47.056,0,0,1,16.764,83.236a46.987,46.987,0,0,1-5.737-6.958A47.08,47.08,0,0,1,6.7,31.706,47.056,47.056,0,0,1,16.764,16.764a46.987,46.987,0,0,1,6.958-5.737A46.844,46.844,0,0,1,50,3Z" fill="#8812fb"/>
</svg>
