<svg xmlns="http://www.w3.org/2000/svg" width="684.962" height="480.84" viewBox="0 0 684.962 480.84">
  <g id="Group_805" data-name="Group 805" transform="translate(-72.387 -101.397)">
    <path id="Path_672" data-name="Path 672" d="M161.668,559.5c-48.23-52.515-72.547-108.766-54.7-192.331,11.8-55.248,49.565-61.844,84.215-95.065,17.1-16.4,6.345-40.26,6.027-63.946-.725-60.656,66.967-107.724,129.2-106.742,67.409,1.064,96.589,68.834,153.136,72.469,22.2.341,42.086-12.691,61.732-23.042,58.21-30.672,150.578-11.112,155.245,63.062,1.2,40.057-29.5,85.707,16.179,106.775,36.4,16.791,58.3,41.772,64.858,101.829,8.587,78.607-36.81,121.749-95.967,141.979Z" transform="translate(-21.257)" fill="#e7cfff"/>
    <g id="Group_712" data-name="Group 712" transform="translate(613.113 458.595)">
      <path id="Path_673" data-name="Path 673" d="M2444.445,1474.736s1.773,10.348-11.222,23.139c-13.245,13.031-15.638,24.513-15.638,24.513l-9.191,3.552s4.472-17.17,15.613-27.135C2437.968,1486.349,2444.445,1474.736,2444.445,1474.736Z" transform="translate(-2341.537 -1474.736)" fill="#a9b9eb"/>
      <path id="Path_674" data-name="Path 674" d="M2514.279,1521.521s-1.22,7.642-13.313,14.654c-12.341,7.128-16.708,14.93-16.708,14.93l-7.549,2.654s7.457-13.107,17.606-18.4A89.835,89.835,0,0,0,2514.279,1521.521Z" transform="translate(-2392.083 -1509.352)" fill="#a9b9eb"/>
      <path id="Path_675" data-name="Path 675" d="M2375.89,1517.4s-8.005,2.218-18.452,18.9c-8.515,13.589-7.852,22.5-13.125,30.806l12.559-6.638c2.8-6.223.164-11.9,7.288-24.6A167.08,167.08,0,0,1,2375.89,1517.4Z" transform="translate(-2294.123 -1506.306)" fill="#a9b9eb"/>
      <path id="Path_676" data-name="Path 676" d="M2156.182,1649.924s-5.42,6.327-4.786,25.978c.509,16.031,7.215,20.494,7.492,24.247l5.67-6.013c-1.982-6.92-6.658-7.814-7.825-22.327A169.394,169.394,0,0,1,2156.182,1649.924Z" transform="translate(-2151.344 -1604.358)" fill="#a9b9eb"/>
      <path id="Path_677" data-name="Path 677" d="M2307.509,1540.625s-8.915,11.233-12.791,19.032c-5.53,11.076-3.132,18.888-7.968,30.607l-9.129,5.516s-1.235-14.513,6.135-27.907C2296.123,1545.4,2307.509,1540.625,2307.509,1540.625Z" transform="translate(-2244.72 -1523.488)" fill="#a9b9eb"/>
      <path id="Path_678" data-name="Path 678" d="M2231.85,1533.684a82.509,82.509,0,0,1-7.452,22.824c-11.016,21.752-5.062,43.272-5.062,43.272l-6.371,2.877s-10.5-17.231-.731-35.239C2222.573,1548.4,2231.85,1533.684,2231.85,1533.684Z" transform="translate(-2193.32 -1518.352)" fill="#a9b9eb"/>
      <path id="Path_679" data-name="Path 679" d="M2356.314,1688.531s6.056,0,27.4,10.771c13.675,6.909,11.41,0,23.479,8.884-10.609-2.741-16.779,3.528-29.871-2.159a218.607,218.607,0,0,0-32.328-11.15Z" transform="translate(-2294.626 -1632.924)" fill="#a9b9eb"/>
      <path id="Path_680" data-name="Path 680" d="M2337.55,1751.78s-12.7,7.936-32.023-.513a118.4,118.4,0,0,0-37.52-9.4l9.525-7.869s10.33-3.05,29.581,7.665C2320.341,1749.018,2337.55,1751.78,2337.55,1751.78Z" transform="translate(-2237.663 -1666.265)" fill="#a9b9eb"/>
      <path id="Path_681" data-name="Path 681" d="M2266.4,1808.116s-12.7,7.937-32.023-.513a118.408,118.408,0,0,0-37.52-9.4l9.525-7.868s10.33-3.051,29.582,7.665C2249.194,1805.355,2266.4,1808.116,2266.4,1808.116Z" transform="translate(-2185.021 -1707.949)" fill="#a9b9eb"/>
      <path id="Path_682" data-name="Path 682" d="M2516.881,1650.353s-8.361,3.488-20.373-2.311a65.606,65.606,0,0,0-22.465-6.463l4.889-2.467s6.529-1.928,18.7,4.841C2506,1648.6,2516.881,1650.353,2516.881,1650.353Z" transform="translate(-2390.111 -1596.171)" fill="#a9b9eb"/>
      <path id="Path_683" data-name="Path 683" d="M2414.508,1665.488a149.949,149.949,0,0,1,24.011,8.822c8.781,3.979,22.752,2.8,22.752,2.8s-13.882,9.677-26.709,2.879a132.176,132.176,0,0,0-30.783-11.143Z" transform="translate(-2338.121 -1615.874)" fill="#a9b9eb"/>
      <path id="Path_684" data-name="Path 684" d="M2487.154,1621.561s12.615-9.844,27.124-7.539a78.163,78.163,0,0,0,25.933-.455s-12.184,10.457-25.272,6.907c-12.09-3.245-23.005,1.621-23.005,1.621Z" transform="translate(-2399.812 -1577.457)" fill="#a9b9eb"/>
      <path id="Path_685" data-name="Path 685" d="M2179.305,1689.8l-1.741-1.578c9.735-10.74,47.988-43.285,85.084-53.122l.6,2.273C2226.668,1647.081,2188.921,1679.2,2179.305,1689.8Z" transform="translate(-2170.744 -1593.394)" fill="#a9b9eb"/>
    </g>
    <g id="Group_713" data-name="Group 713" transform="translate(634.641 407.091)">
      <path id="Path_686" data-name="Path 686" d="M2239.869,1496.282q-9.963-13.445-2.677-34.6Q2247.619,1481.49,2239.869,1496.282Z" transform="translate(-2234.114 -1413.572)" fill="#a9b9eb"/>
      <path id="Path_687" data-name="Path 687" d="M2282.885,1430q-7.121-13.491,2.364-31.539Q2291.922,1417.753,2282.885,1430Z" transform="translate(-2267.94 -1366.797)" fill="#a9b9eb"/>
      <path id="Path_688" data-name="Path 688" d="M2326.346,1362.16q-4.806-13.672,6.626-29.307Q2336.581,1351.908,2326.346,1362.16Z" transform="translate(-2301.304 -1318.252)" fill="#a9b9eb"/>
      <path id="Path_689" data-name="Path 689" d="M2387.069,1291.369q-.388,16.394-10.66,23.093Q2374.86,1302.265,2387.069,1291.369Z" transform="translate(-2339.27 -1287.558)" fill="#a9b9eb"/>
      <path id="Path_690" data-name="Path 690" d="M2438.371,1276.716q-2.753,13.447-12.189,17.436Q2426.7,1283.9,2438.371,1276.716Z" transform="translate(-2376.226 -1276.716)" fill="#a9b9eb"/>
      <path id="Path_691" data-name="Path 691" d="M2453.6,1312.343q4.144-9.386,17.626-11.925Q2463.83,1311.993,2453.6,1312.343Z" transform="translate(-2396.51 -1294.253)" fill="#a9b9eb"/>
      <path id="Path_692" data-name="Path 692" d="M2299.406,1544.6q-14.681,17.157-31.474,15.344Q2276.837,1545.641,2299.406,1544.6Z" transform="translate(-2259.136 -1474.925)" fill="#a9b9eb"/>
      <path id="Path_693" data-name="Path 693" d="M2335.136,1458.579q10.848-8.537,28.5-3.016Q2347.549,1464.63,2335.136,1458.579Z" transform="translate(-2308.861 -1407.441)" fill="#a9b9eb"/>
      <path id="Path_694" data-name="Path 694" d="M2394.751,1410.065q-13.994,7.9-24.8,2.626Q2379.388,1405.254,2394.751,1410.065Z" transform="translate(-2334.624 -1373.983)" fill="#a9b9eb"/>
      <path id="Path_695" data-name="Path 695" d="M2414.158,1371.6q9.44-7.41,24.8-2.626Q2424.952,1376.882,2414.158,1371.6Z" transform="translate(-2367.329 -1343.592)" fill="#a9b9eb"/>
      <path id="Path_696" data-name="Path 696" d="M2239.543,1435.644c6.9-25.781,7.526-23.661,14.252-38.541q2.719-6.032,5.753-11.42a116.835,116.835,0,0,1,14.96-20.358q9.812-11.148,16.868-14.532l.456-.5a.416.416,0,0,1,.471-.255.72.72,0,0,1,.572.006,1.344,1.344,0,0,1,.349.507.72.72,0,0,1-.007.572l-.178.388a1.555,1.555,0,0,1-.507.358v.1l-.426.16q-6.822,3.456-16.362,14.217A114.543,114.543,0,0,0,2261.1,1386.6a122.134,122.134,0,0,0-5.759,11.195l-.445,1q9.843-11.572,30.107-9.495-15.374,13.337-30.107,9.495c-6.521,14.657-6.952,12.1-13.675,37.239Z" transform="translate(-2238.131 -1330.928)" fill="#a9b9eb"/>
    </g>
    <g id="Group_714" data-name="Group 714" transform="translate(305.5 448.15)">
      <path id="Path_697" data-name="Path 697" d="M1111.549,1751.7q-15.859,5.343-33.748-8.1Q1099.858,1739.775,1111.549,1751.7Z" transform="translate(-1049.411 -1662.538)" fill="#a9b9eb"/>
      <path id="Path_698" data-name="Path 698" d="M1063.763,1686.653q-15.027,2.626-29.282-11.951Q1054.889,1674.286,1063.763,1686.653Z" transform="translate(-1017.358 -1612.236)" fill="#a9b9eb"/>
      <path id="Path_699" data-name="Path 699" d="M1014.886,1617.345q-14.488.367-25.847-15.32Q1008.28,1604.453,1014.886,1617.345Z" transform="translate(-983.735 -1558.472)" fill="#a9b9eb"/>
      <path id="Path_700" data-name="Path 700" d="M968.647,1530.247q15.479,5.412,18.693,17.248Q975.258,1545.217,968.647,1530.247Z" transform="translate(-968.647 -1505.363)" fill="#a9b9eb"/>
      <path id="Path_701" data-name="Path 701" d="M971.671,1473.26q11.948,6.757,12.841,16.962Q974.917,1486.577,971.671,1473.26Z" transform="translate(-970.884 -1463.198)" fill="#a9b9eb"/>
      <path id="Path_702" data-name="Path 702" d="M1014.1,1455.015q-7.656-6.831-5.924-20.44Q1016.92,1445.169,1014.1,1455.015Z" transform="translate(-997.662 -1434.575)" fill="#a9b9eb"/>
      <path id="Path_703" data-name="Path 703" d="M1194.7,1635.7q11.808,19.246,4.917,34.667Q1188.745,1657.494,1194.7,1635.7Z" transform="translate(-1134.345 -1583.388)" fill="#a9b9eb"/>
      <path id="Path_704" data-name="Path 704" d="M1112.11,1585.186q-4.786-12.949,5.9-28.045Q1121.686,1575.236,1112.11,1585.186Z" transform="translate(-1073.701 -1525.262)" fill="#a9b9eb"/>
      <path id="Path_705" data-name="Path 705" d="M1083.013,1523.316q3.215,15.747-5.13,24.4Q1073.709,1536.455,1083.013,1523.316Z" transform="translate(-1048.515 -1500.235)" fill="#a9b9eb"/>
      <path id="Path_706" data-name="Path 706" d="M1052.386,1493.008q-4.147-11.262,5.13-24.4Q1060.729,1484.362,1052.386,1493.008Z" transform="translate(-1029.658 -1459.755)" fill="#a9b9eb"/>
      <path id="Path_707" data-name="Path 707" d="M1097.229,1599.518c-22.407-14.5-20.2-14.441-32.287-25.417q-4.9-4.444-9.1-8.987a116.832,116.832,0,0,1-14.768-20.5q-7.589-12.767-8.638-20.521l-.333-.587a.416.416,0,0,1-.1-.526.719.719,0,0,1,.182-.542,1.331,1.331,0,0,1,.589-.177.717.717,0,0,1,.542.182l.314.288a1.558,1.558,0,0,1,.185.592l.09.031.021.455q1.19,7.554,8.495,19.943a114.526,114.526,0,0,0,14.769,20.169,122.13,122.13,0,0,0,8.88,8.924l.814.73q-7.983-12.926.228-31.568,7.961,18.73-.228,31.568c11.94,10.714,9.377,10.338,31.227,24.468Z" transform="translate(-1015.489 -1499.454)" fill="#a9b9eb"/>
    </g>
    <g id="Group_715" data-name="Group 715" transform="translate(400.168 454.632)">
      <path id="Path_708" data-name="Path 708" d="M1574.655,1459.5s2.062,8.654-8.231,20.177c-10.491,11.738-11.891,21.578-11.891,21.578l-7.579,3.5s2.848-14.762,11.727-23.794C1569.81,1469.669,1574.655,1459.5,1574.655,1459.5Z" transform="translate(-1491.208 -1459.497)" fill="#a9b9eb"/>
      <path id="Path_709" data-name="Path 709" d="M1633.316,1495.027s-.617,6.529-10.46,13.115c-10.048,6.7-13.316,13.532-13.316,13.532l-6.239,2.655s5.593-11.488,13.887-16.516A76.142,76.142,0,0,0,1633.316,1495.027Z" transform="translate(-1532.898 -1485.786)" fill="#a9b9eb"/>
      <path id="Path_710" data-name="Path 710" d="M1518.773,1500s-6.649,2.311-14.575,16.981c-6.461,11.954-5.416,19.451-9.424,26.763l10.259-6.3c2.033-5.414-.509-10.071,4.825-21.194A141.589,141.589,0,0,1,1518.773,1500Z" transform="translate(-1452.599 -1489.462)" fill="#a9b9eb"/>
      <path id="Path_711" data-name="Path 711" d="M1335.62,1628.133s-4.239,5.644-2.635,22.226c1.3,13.528,7.215,16.937,7.653,20.1l4.468-5.393c-2.052-5.744-6.055-6.245-7.83-18.453A143.469,143.469,0,0,1,1335.62,1628.133Z" transform="translate(-1332.623 -1584.272)" fill="#a9b9eb"/>
      <path id="Path_712" data-name="Path 712" d="M1462.411,1523.6s-6.927,9.984-9.78,16.789c-4.074,9.666-1.622,16.142-5.074,26.314l-7.42,5.161a46.367,46.367,0,0,1,3.671-23.931C1453.042,1528.252,1462.411,1523.6,1462.411,1523.6Z" transform="translate(-1411.956 -1506.926)" fill="#a9b9eb"/>
      <path id="Path_713" data-name="Path 713" d="M1397.75,1522.8a69.89,69.89,0,0,1-5.061,19.705c-8.132,18.992-1.927,36.865-1.927,36.865l-5.231,2.779s-9.812-14-2.535-29.758C1390.706,1535.746,1397.75,1522.8,1397.75,1522.8Z" transform="translate(-1367.906 -1506.334)" fill="#a9b9eb"/>
      <path id="Path_714" data-name="Path 714" d="M1504.82,1648.89s5.12-.331,23.753,7.619c11.939,5.1,9.648-.624,20.336,6.235-9.12-1.741-14,3.9-25.376-.2a185.186,185.186,0,0,0-27.942-7.67Z" transform="translate(-1453.205 -1599.628)" fill="#a9b9eb"/>
      <path id="Path_715" data-name="Path 715" d="M1492.688,1702.915s-10.305,7.4-27.107,1.307a100.353,100.353,0,0,0-32.238-5.912l7.627-7.171s8.569-3.141,25.43,4.874C1477.987,1701.515,1492.688,1702.915,1492.688,1702.915Z" transform="translate(-1407.147 -1630.441)" fill="#a9b9eb"/>
      <path id="Path_716" data-name="Path 716" d="M1435.59,1754.42s-10.305,7.4-27.107,1.307a100.329,100.329,0,0,0-32.237-5.913l7.627-7.171s8.569-3.141,25.43,4.873C1420.889,1753.02,1435.59,1754.42,1435.59,1754.42Z" transform="translate(-1364.9 -1668.55)" fill="#a9b9eb"/>
      <path id="Path_717" data-name="Path 717" d="M1637.956,1608.4s-6.88,3.4-17.353-.847a55.594,55.594,0,0,0-19.347-4.243l4-2.352s5.416-1.986,16.075,3.076C1628.663,1607.51,1637.956,1608.4,1637.956,1608.4Z" transform="translate(-1531.386 -1563.879)" fill="#a9b9eb"/>
      <path id="Path_718" data-name="Path 718" d="M1552.313,1626.338a127.039,127.039,0,0,1,20.783,6.155c7.642,2.887,19.391,1.13,19.391,1.13s-11.213,8.937-22.429,3.886a112,112,0,0,0-26.635-7.75Z" transform="translate(-1488.594 -1582.943)" fill="#a9b9eb"/>
      <path id="Path_719" data-name="Path 719" d="M1612.069,1578.7s10.132-9.01,22.526-7.849a66.257,66.257,0,0,0,21.9-1.795s-9.735,9.5-20.995,7.214a32.181,32.181,0,0,0-19.365,2.622Z" transform="translate(-1539.386 -1540.56)" fill="#a9b9eb"/>
      <path id="Path_720" data-name="Path 720" d="M1362.446,1648.188l-1.558-1.24c7.648-9.611,38.225-39.21,69.058-49.544l.633,1.889C1400.173,1609.487,1370,1638.7,1362.446,1648.188Z" transform="translate(-1353.536 -1561.535)" fill="#a9b9eb"/>
    </g>
    <g id="Group_716" data-name="Group 716" transform="translate(72.387 456.186)">
      <path id="Path_721" data-name="Path 721" d="M216.816,1465.471s-2.865,8.986,7.106,21.982c10.162,13.241,10.862,23.754,10.862,23.754l7.735,4.3s-1.842-15.832-10.515-26.084C221.133,1476.608,216.816,1465.471,216.816,1465.471Z" transform="translate(-178.968 -1465.471)" fill="#a9b9eb"/>
      <path id="Path_722" data-name="Path 722" d="M146.107,1497.867s.135,6.951,10.021,14.694c10.093,7.877,13.007,15.361,13.007,15.361l6.386,3.3s-5-12.588-13.375-18.56A80.709,80.709,0,0,1,146.107,1497.867Z" transform="translate(-126.933 -1489.441)" fill="#a9b9eb"/>
      <path id="Path_723" data-name="Path 723" d="M284.907,1513.543s6.846,2.969,14.065,19.107c5.885,13.149,4.187,20.993,7.845,29.04l-10.348-7.468c-1.721-5.885,1.335-10.607-3.424-22.789A150.132,150.132,0,0,0,284.907,1513.543Z" transform="translate(-229.632 -1501.04)" fill="#a9b9eb"/>
      <path id="Path_724" data-name="Path 724" d="M494.716,1668.239s4.035,6.3,1.026,23.707c-2.447,14.2-8.969,17.335-9.682,20.64l-4.3-6.055c2.625-5.91,6.9-6.123,9.74-18.89A152.182,152.182,0,0,0,494.716,1668.239Z" transform="translate(-375.286 -1615.5)" fill="#a9b9eb"/>
      <path id="Path_725" data-name="Path 725" d="M346.932,1543.278s6.534,11.1,9.012,18.524c3.542,10.542.437,17.194,3.281,28.222l7.436,6.044s2.9-12.759-1.986-25.591C356.469,1548.941,346.932,1543.278,346.932,1543.278Z" transform="translate(-275.524 -1523.041)" fill="#a9b9eb"/>
      <path id="Path_726" data-name="Path 726" d="M430.776,1548.708a74.121,74.121,0,0,0,3.791,21.233c7.094,20.723-.881,39.127-.881,39.127l5.31,3.353s11.482-14.024,5.035-31.261C437.2,1562.953,430.776,1548.708,430.776,1548.708Z" transform="translate(-337.561 -1527.058)" fill="#a9b9eb"/>
      <path id="Path_727" data-name="Path 727" d="M196.576,1675.325s-5.387-.755-25.715,6.174c-13.026,4.446-10.15-1.423-21.994,4.982,9.78-1.119,14.489,5.226,26.844,1.8a196.358,196.358,0,0,1,30.148-5.9Z" transform="translate(-128.975 -1620.725)" fill="#a9b9eb"/>
      <path id="Path_728" data-name="Path 728" d="M187.332,1732.473s10.309,8.641,28.554,3.527a106.38,106.38,0,0,1,34.55-3.7l-7.5-8.186s-8.811-4-27.271,3.139C202.986,1732.157,187.332,1732.473,187.332,1732.473Z" transform="translate(-157.435 -1656.018)" fill="#a9b9eb"/>
      <path id="Path_729" data-name="Path 729" d="M243.62,1791.446s10.309,8.64,28.555,3.527a106.374,106.374,0,0,1,34.55-3.7l-7.5-8.185s-8.81-4-27.271,3.139C259.274,1791.13,243.62,1791.446,243.62,1791.446Z" transform="translate(-199.083 -1699.653)" fill="#a9b9eb"/>
      <path id="Path_730" data-name="Path 730" d="M110.363,1622.362s7,4.143,18.413.478a58.934,58.934,0,0,1,20.79-2.954l-4.043-2.8s-5.569-2.528-17.239,1.98C120.258,1622.159,110.363,1622.362,110.363,1622.362Z" transform="translate(-100.486 -1577.126)" fill="#a9b9eb"/>
      <path id="Path_731" data-name="Path 731" d="M162.423,1647.861a134.716,134.716,0,0,0-22.46,4.862c-8.307,2.448-20.59-.341-20.59-.341s11.147,10.336,23.4,5.884a118.752,118.752,0,0,1,28.773-6.084Z" transform="translate(-107.152 -1600.422)" fill="#a9b9eb"/>
      <path id="Path_732" data-name="Path 732" d="M118.6,1584.762s-10-10.327-23.193-10.082a70.221,70.221,0,0,1-23.016-3.632s9.539,10.82,21.625,9.289a34.113,34.113,0,0,1,20.266,4.305Z" transform="translate(-72.387 -1543.589)" fill="#a9b9eb"/>
      <path id="Path_733" data-name="Path 733" d="M300.6,1672.444l1.746-1.188c-7.325-10.766-37.309-44.479-69.089-57.846l-.819,1.947C263.78,1628.541,293.367,1661.817,300.6,1672.444Z" transform="translate(-190.812 -1574.932)" fill="#a9b9eb"/>
    </g>
    <g id="Group_717" data-name="Group 717" transform="translate(282.526 162.335)">
      <path id="Path_734" data-name="Path 734" d="M882.181,338.327a13.5,13.5,0,0,1,8.381-2.638c7.035,0,10.76,3.828,10.76,9.208,0,3.1-1.5,6.259-4.552,9.415-3.88,4.087-6.673,6.1-8.432,6.1a2.915,2.915,0,0,1-2.949-2.949c0-1.448,1.345-2.9,3.673-5.018a2.271,2.271,0,0,1,.414-.362c2.638-2.431,3.466-3.776,3.466-5.432,0-2.069-1.4-3.207-3.414-3.207a11.078,11.078,0,0,0-3.311.621,10.636,10.636,0,0,1-2.794.621,3.226,3.226,0,0,1-3.1-3.311A3.912,3.912,0,0,1,882.181,338.327Zm7.087,34.5a5.139,5.139,0,0,1-5.277-5.277,5.059,5.059,0,0,1,5.277-4.863,4.958,4.958,0,0,1,4.862,4.863A5.022,5.022,0,0,1,889.269,372.832Z" transform="translate(-880.319 -335.689)" fill="#fff"/>
    </g>
    <g id="Group_718" data-name="Group 718" transform="translate(636.493 300.397)">
      <path id="Path_735" data-name="Path 735" d="M2242.693,868.569a10.579,10.579,0,0,1,6.568-2.068c5.514,0,8.433,3,8.433,7.217,0,2.433-1.175,4.906-3.567,7.38-3.042,3.2-5.231,4.784-6.609,4.784a2.285,2.285,0,0,1-2.311-2.311c0-1.135,1.054-2.27,2.879-3.933a1.77,1.77,0,0,1,.325-.284c2.067-1.906,2.717-2.96,2.717-4.257a2.409,2.409,0,0,0-2.676-2.514,8.7,8.7,0,0,0-2.6.486,8.328,8.328,0,0,1-2.189.487,2.529,2.529,0,0,1-2.433-2.595A3.065,3.065,0,0,1,2242.693,868.569Zm5.554,27.044a4.027,4.027,0,0,1-4.136-4.136,3.965,3.965,0,0,1,4.136-3.811,3.886,3.886,0,0,1,3.811,3.811A3.936,3.936,0,0,1,2248.247,895.613Z" transform="translate(-2241.233 -866.501)" fill="#fff"/>
    </g>
    <g id="Group_724" data-name="Group 724" transform="translate(462.575 254.56)">
      <g id="Group_719" data-name="Group 719" transform="translate(0)">
        <path id="Path_736" data-name="Path 736" d="M1659.78,768.427h-84.512a2.705,2.705,0,0,1-2.7-2.706V692.974a2.705,2.705,0,1,1,5.41,0v70.042h81.806a2.706,2.706,0,0,1,0,5.411Z" transform="translate(-1572.563 -690.269)" fill="#cdd8fa"/>
      </g>
      <g id="Group_723" data-name="Group 723" transform="translate(6.397 11.669)">
        <g id="Group_720" data-name="Group 720" transform="translate(0 7.088)">
          <path id="Path_737" data-name="Path 737" d="M1599.865,804a2.705,2.705,0,0,1-1.945-4.586l27.314-28.255a2.706,2.706,0,0,1,3.417-.389l12.917,8.378,13.62-15.826a2.705,2.705,0,1,1,4.1,3.529l-15.161,17.617a2.706,2.706,0,0,1-3.523.5l-13.029-8.452-25.766,26.653A2.7,2.7,0,0,1,1599.865,804Z" transform="translate(-1597.159 -762.386)" fill="#f5a3b7"/>
        </g>
        <g id="Group_722" data-name="Group 722" transform="translate(50.039)">
          <g id="Group_721" data-name="Group 721">
            <path id="Path_738" data-name="Path 738" d="M1801.7,754.763l-3.854-7.809-8.3-2.647,18.468-9.173Z" transform="translate(-1789.547 -735.134)" fill="#f5a3b7"/>
          </g>
        </g>
      </g>
    </g>
    <g id="Group_725" data-name="Group 725" transform="translate(211.605 173.664)">
      <path id="Path_739" data-name="Path 739" d="M622.558,409.068a14.912,14.912,0,1,1,14.912-14.912A14.929,14.929,0,0,1,622.558,409.068Zm0-25.717a10.8,10.8,0,1,0,10.8,10.8A10.817,10.817,0,0,0,622.558,383.351Z" transform="translate(-607.646 -379.244)" fill="#fff"/>
    </g>
    <g id="Group_726" data-name="Group 726" transform="translate(701.191 357.784)">
      <path id="Path_740" data-name="Path 740" d="M2502.877,1112.936a12.9,12.9,0,1,1,12.9-12.9A12.911,12.911,0,0,1,2502.877,1112.936Zm0-22.241a9.345,9.345,0,1,0,9.344,9.344A9.355,9.355,0,0,0,2502.877,1090.695Z" transform="translate(-2489.98 -1087.143)" fill="#fff"/>
    </g>
    <g id="Group_727" data-name="Group 727" transform="translate(98.238 362.435)">
      <path id="Path_741" data-name="Path 741" d="M181.584,1124.637a9.807,9.807,0,1,1,9.807-9.807A9.818,9.818,0,0,1,181.584,1124.637Zm0-16.913a7.106,7.106,0,1,0,7.106,7.106A7.114,7.114,0,0,0,181.584,1107.724Z" transform="translate(-171.777 -1105.023)" fill="#fff"/>
    </g>
    <g id="Group_728" data-name="Group 728" transform="translate(683.296 292.462)">
      <path id="Path_742" data-name="Path 742" d="M2427.98,849.6a6.8,6.8,0,1,1,6.8-6.8A6.808,6.808,0,0,1,2427.98,849.6Zm0-11.728a4.927,4.927,0,1,0,4.927,4.927A4.933,4.933,0,0,0,2427.98,837.868Z" transform="translate(-2421.18 -835.995)" fill="#e3eaff"/>
    </g>
    <circle id="Ellipse_17" data-name="Ellipse 17" cx="10.491" cy="10.491" r="10.491" transform="translate(141.893 253.1) rotate(-22.5)" fill="#e3eaff"/>
    <path id="Path_743" data-name="Path 743" d="M1625.059,265.293a10.491,10.491,0,1,1-10.491-10.491A10.491,10.491,0,0,1,1625.059,265.293Z" transform="translate(-1133.305 -113.505)" fill="#e3eaff"/>
    <path id="Path_744" data-name="Path 744" d="M1976.152,697.039a6.767,6.767,0,1,1-6.767-6.767A6.767,6.767,0,0,1,1976.152,697.039Z" transform="translate(-1398.592 -435.712)" fill="#fff"/>
    <path id="Path_745" data-name="Path 745" d="M2585.045,1234.074a6.767,6.767,0,1,1-6.767-6.767A6.767,6.767,0,0,1,2585.045,1234.074Z" transform="translate(-1849.115 -833.067)" fill="#fff"/>
    <path id="Path_746" data-name="Path 746" d="M2395.554,752.537a10.491,10.491,0,1,1-10.491-10.491A10.491,10.491,0,0,1,2395.554,752.537Z" transform="translate(-1703.398 -474.019)" fill="#e3eaff"/>
    <path id="Path_747" data-name="Path 747" d="M745.073,321.118a8.514,8.514,0,1,1-8.513-8.513A8.514,8.514,0,0,1,745.073,321.118Z" transform="translate(-485.125 -156.274)" fill="#fff"/>
    <path id="Path_748" data-name="Path 748" d="M1031.426,1032.944a8.514,8.514,0,1,1-8.514-8.514A8.514,8.514,0,0,1,1031.426,1032.944Z" transform="translate(-697 -682.957)" fill="#fff"/>
    <ellipse id="Ellipse_18" data-name="Ellipse 18" cx="286.379" cy="23.519" rx="286.379" ry="23.519" transform="translate(133.172 535.199)" fill="#95a6db"/>
    <g id="Group_793" data-name="Group 793" transform="translate(138.559 297.121)">
      <path id="Path_749" data-name="Path 749" d="M806.343,1533.46l-9.952-.052,26.175-117.528,9.517,2Z" transform="translate(-674.253 -1269.715)" fill="#617ac9"/>
      <path id="Path_750" data-name="Path 750" d="M1689.242,1533.46l9.952-.052-26.175-117.528-9.517,2Z" transform="translate(-1315.833 -1269.715)" fill="#617ac9"/>
      <path id="Path_751" data-name="Path 751" d="M1519.372,1605.924h0a3.5,3.5,0,0,1-3.5-3.5v-62.857h7.005v62.857A3.5,3.5,0,0,1,1519.372,1605.924Z" transform="translate(-1206.599 -1361.228)" fill="#130d5b"/>
      <path id="Path_752" data-name="Path 752" d="M1194.871,1605.924h0a3.5,3.5,0,0,1-3.5-3.5v-62.857h7.005v62.857A3.5,3.5,0,0,1,1194.871,1605.924Z" transform="translate(-966.499 -1361.228)" fill="#130d5b"/>
      <rect id="Rectangle_392" data-name="Rectangle 392" width="105.064" height="12.363" rx="6.182" transform="translate(217.31 166.098)" fill="#8812fb"/>
      <g id="Group_738" data-name="Group 738" transform="translate(180.795 1.479)">
        <path id="Path_753" data-name="Path 753" d="M1482.9,1094.451c6.406,1.87,31.068,28.321,36.973,47.893-3.2,17.6-31.138,26.737-31.138,26.737l-.466-13.638s9.174-6.108,13.371-13.1c-6.684-4.819-19.855-21.032-19.855-21.032Z" transform="translate(-1362.175 -1033.366)" fill="#201d40"/>
        <path id="Path_754" data-name="Path 754" d="M1081.11,1094.451c-6.406,1.87-22.29,27.294-28.8,50.28a266.1,266.1,0,0,0-30.4,23.26l15.823,1.043s20.761-5.117,31.754-17.047c4.581-9.337,12.736-30.675,12.736-30.675Z" transform="translate(-1021.913 -1033.366)" fill="#201d40"/>
        <path id="Path_755" data-name="Path 755" d="M1340.34,1075.644l-21.555.957-2.173,21.09,2.349,60.183,22.731-.284,5.941-67.372Z" transform="translate(-1239.962 -1019.45)" fill="#95a6db"/>
        <path id="Path_756" data-name="Path 756" d="M1279.586,883.922c3-3.45,5.369-.1,9.649-4.374s7.715-7.345,11.379-2.839,5.55,5.139,8.216,4.881,2.651,10.708,2.651,10.708a10.024,10.024,0,0,0,7.04-9.023c.612-8.61-3.376-7.318-5.536-14.2s-10.5-10.759-14.317-9.107c-4.024,1.741-6.135,3.656-12,2.233s-10.907.3-10.9,7.9-8.925,5.33-6.065,14.818c1.11,3.68,4.219,7.067,5.663,6.772C1277.307,891.3,1277.651,886.145,1279.586,883.922Z" transform="translate(-1204.841 -859.594)" fill="#2c2858"/>
        <g id="Group_730" data-name="Group 730" transform="translate(104.129 28.632)">
          <path id="Path_757" data-name="Path 757" d="M1423.121,972.707c-1.437,2.772-1.028,6.2.915,7.656s4.682.391,6.119-2.38,1.028-6.2-.915-7.657S1424.558,969.936,1423.121,972.707Z" transform="translate(-1422.263 -969.675)" fill="#f37a50"/>
          <g id="Group_729" data-name="Group 729" transform="translate(2.814 2.634)">
            <path id="Path_758" data-name="Path 758" d="M1433.721,986.488a.449.449,0,0,0,.159-.015.7.7,0,0,0,.43-.8c-.287-1.8-.136-3.122.437-3.834a2.338,2.338,0,0,1,2.16-.671.582.582,0,0,0,.645-.536.646.646,0,0,0-.412-.771,3.289,3.289,0,0,0-3.147,1.054c-.863,1.066-1.115,2.766-.749,5.055A.567.567,0,0,0,1433.721,986.488Z" transform="translate(-1433.082 -979.801)" fill="#de623c"/>
          </g>
        </g>
        <path id="Path_759" data-name="Path 759" d="M1335.667,1054.815l7.5,5.933,7.612-5.933,1.008-14.495H1334.66Z" transform="translate(-1253.316 -993.314)" fill="#de623c"/>
        <g id="Group_731" data-name="Group 731" transform="translate(58.96 58.557)">
          <path id="Path_760" data-name="Path 760" d="M1248.6,1087.258l.391,77.339c7.338,6.024,21.723,7.67,21.723,7.67l-2.615-87.537Z" transform="translate(-1248.6 -1084.73)" fill="#2c2858"/>
          <path id="Path_761" data-name="Path 761" d="M1427.594,1087.258l-.391,77.339c-7.339,6.024-21.062,7.834-21.062,7.834l1.955-87.7Z" transform="translate(-1365.165 -1084.73)" fill="#2c2858"/>
        </g>
        <path id="Path_762" data-name="Path 762" d="M1283.058,1094.441l12.389,53.453-1.881-66.795Z" transform="translate(-1215.135 -1023.487)" fill="#494c7f"/>
        <path id="Path_763" data-name="Path 763" d="M1420.542,1093.426l-12.7,57.767,1.513-66.462Z" transform="translate(-1307.463 -1026.173)" fill="#494c7f"/>
        <path id="Path_764" data-name="Path 764" d="M1317.761,897.285c-22.1-.521-17.058,29.254-15.445,33.932.879,2.551,6.487,12.335,15.505,12.474,9.018-.139,14.5-9.923,15.384-12.474C1334.819,926.538,1340.63,897.633,1317.761,897.285Z" transform="translate(-1228.163 -887.477)" fill="#f37a50"/>
        <g id="Group_732" data-name="Group 732" transform="translate(77.667 28.816)">
          <path id="Path_765" data-name="Path 765" d="M1328.584,972.6a1.021,1.021,0,0,0-.162-1.87,8.84,8.84,0,0,0-7.471,1.228,1.021,1.021,0,0,0,1.191,1.659,6.793,6.793,0,0,1,5.642-.948A1.018,1.018,0,0,0,1328.584,972.6Z" transform="translate(-1320.525 -970.386)" fill="#2c2858"/>
        </g>
        <g id="Group_733" data-name="Group 733" transform="translate(94.976 28.816)">
          <path id="Path_766" data-name="Path 766" d="M1387.613,972.6a1.021,1.021,0,0,1,.162-1.87,8.84,8.84,0,0,1,7.471,1.228,1.021,1.021,0,0,1-1.191,1.659,6.793,6.793,0,0,0-5.642-.948A1.018,1.018,0,0,1,1387.613,972.6Z" transform="translate(-1387.073 -970.386)" fill="#2c2858"/>
        </g>
        <path id="Path_767" data-name="Path 767" d="M1394.674,986.349a1.8,1.8,0,1,1-1.8-1.8A1.8,1.8,0,0,1,1394.674,986.349Z" transform="translate(-1295.053 -952.047)"/>
        <path id="Path_768" data-name="Path 768" d="M1336.736,985.346a1.8,1.8,0,1,1-1.8-1.8A1.8,1.8,0,0,1,1336.736,985.346Z" transform="translate(-1252.185 -951.304)"/>
        <path id="Path_769" data-name="Path 769" d="M1365.617,995.8c1.109,2.484,2.53,5.525,2.53,5.525a4.146,4.146,0,0,1-4.356,1.883c1.423-.368,2.88-1.088,2.582-2.959S1365.617,995.8,1365.617,995.8Z" transform="translate(-1274.87 -960.372)" fill="#de623c"/>
        <g id="Group_734" data-name="Group 734" transform="translate(75.568 56.194)">
          <path id="Path_770" data-name="Path 770" d="M1353.434,1140.174l3.78,50.767-5.669,6.692-5.669-6.692,3.866-50.636Z" transform="translate(-1337.183 -1123.39)" fill="#201d40"/>
          <path id="Path_771" data-name="Path 771" d="M1361.211,1116.385l-3.771-.99-3.855,1.159,1.857,5.511,3.708-.065Z" transform="translate(-1342.887 -1105.056)" fill="#201d40"/>
          <path id="Path_772" data-name="Path 772" d="M1326.815,1088.715a18.829,18.829,0,0,1-6.929,5.728l-7.433-11.281,3.255-3.839Z" transform="translate(-1312.453 -1078.366)" fill="#fff"/>
          <path id="Path_773" data-name="Path 773" d="M1367.671,1085.993s3.614,4.216,7.126,5.481l6.731-12.178-3.17-3.651Z" transform="translate(-1353.309 -1075.644)" fill="#fff"/>
        </g>
        <path id="Path_774" data-name="Path 774" d="M1298.969,912.214c2.5.832,3.306-12.847,13.017-6.373,6.836,4.558,19.572,3.836,17.024-2.345a57.118,57.118,0,0,1,5.013,4.524l-4.492-14.87s-18.534-5.825-25.115.075S1298.969,912.214,1298.969,912.214Z" transform="translate(-1226.853 -882.524)" fill="#2c2858"/>
        <g id="Group_736" data-name="Group 736" transform="translate(66.101 28.816)">
          <path id="Path_775" data-name="Path 775" d="M1285.921,973.773c1.47,2.883.613,6.264-1.913,7.552s-5.765-.005-7.235-2.889-.613-6.264,1.913-7.552S1284.451,970.89,1285.921,973.773Z" transform="translate(-1276.055 -970.386)" fill="#f37a50"/>
          <g id="Group_735" data-name="Group 735" transform="translate(1.959 2.525)">
            <path id="Path_776" data-name="Path 776" d="M1287.669,987a.678.678,0,0,1-.194-.029.665.665,0,0,1-.442-.83c.537-1.765.49-3.1-.137-3.857a3.27,3.27,0,0,0-2.572-.851.665.665,0,0,1-.148-1.322,4.564,4.564,0,0,1,3.738,1.317c.945,1.135,1.076,2.85.392,5.1A.665.665,0,0,1,1287.669,987Z" transform="translate(-1283.587 -980.094)" fill="#de623c"/>
          </g>
        </g>
        <g id="Group_737" data-name="Group 737" transform="translate(84.31 44.855)">
          <path id="Path_777" data-name="Path 777" d="M1352.363,1035.9a11.455,11.455,0,0,1-6.054-1.906.823.823,0,0,1,1.082-1.237c.238.153,5.742,3.531,9.351-.441a.823.823,0,1,1,1.218,1.107,7.275,7.275,0,0,1-5.35,2.474Q1352.486,1035.905,1352.363,1035.9Z" transform="translate(-1346.062 -1032.051)" fill="#de623c"/>
        </g>
        <path id="Path_778" data-name="Path 778" d="M1289.22,1401.213l-15.342-14.139H1223.2l-18.383,14.047,20.76,15.037h45.966Z" transform="translate(-1157.242 -1249.879)" fill="#201d40"/>
        <g id="c" transform="translate(41.73 145.448)">
          <path id="Path_779" data-name="Path 779" d="M1201.426,1756.313c-4.7,10.174-21.721,8.47-18.719,19.772s34.108-6.725,34.108-6.725a89.969,89.969,0,0,0-3.41-11.689Z" transform="translate(-1182.354 -1668.529)"/>
          <path id="Path_780" data-name="Path 780" d="M1435.548,1754.343c4.9,10.617,22.668,8.839,19.536,20.635s-35.6-7.019-35.6-7.019a93.986,93.986,0,0,1,3.559-12.2Z" transform="translate(-1357.811 -1667.071)"/>
          <path id="c-2" data-name="c" d="M1219.019,1444.957c-.114-16.25-13.832-34.3-27.534-22.193-14.37,12.7,8.844,84.828,8.844,84.828,8.545,5.1,12.63,4.936,21.464,0C1221.793,1507.591,1219.129,1460.639,1219.019,1444.957Z" transform="translate(-1185.637 -1418.806)" fill="#2c2858"/>
          <path id="c-3" data-name="c" d="M1427.578,1455.354c.114-16.25,13.65-27.483,24.473-20.265,11.717,7.814-7.458,84.557-7.458,84.557-3.313,1.594-12.976,2.625-19.709.708C1424.883,1520.354,1427.468,1471.037,1427.578,1455.354Z" transform="translate(-1361.803 -1429.203)" fill="#2c2858"/>
        </g>
      </g>
      <g id="Group_768" data-name="Group 768" transform="translate(323.499 22.398)">
        <g id="с" transform="translate(74.058 75.319)">
          <path id="с-2" data-name="с" d="M1895.419,1681.437h0a3.5,3.5,0,0,1-3.5-3.5v-62.059h7.005v62.059A3.5,3.5,0,0,1,1895.419,1681.437Z" transform="translate(-1882.395 -1515.408)" fill="#130d5b"/>
          <path id="с-3" data-name="с" d="M1989.915,1681.437h0a3.5,3.5,0,0,1-3.5-3.5v-62.059h7.006v62.059A3.5,3.5,0,0,1,1989.915,1681.437Z" transform="translate(-1952.313 -1515.408)" fill="#130d5b"/>
          <path id="с-4" data-name="с" d="M2113.911,1681.437h0a3.5,3.5,0,0,1-3.5-3.5v-62.059h7.005v62.059A3.5,3.5,0,0,1,2113.911,1681.437Z" transform="translate(-2044.058 -1515.408)" fill="#130d5b"/>
          <path id="с-5" data-name="с" d="M2208.407,1681.437h0a3.5,3.5,0,0,1-3.5-3.5v-62.059h7.005v62.059A3.5,3.5,0,0,1,2208.407,1681.437Z" transform="translate(-2113.977 -1515.408)" fill="#130d5b"/>
          <path id="с-6" data-name="с" d="M1910.985,1237.97v73.851a1.522,1.522,0,0,1-1.521,1.522h-45.789a8.365,8.365,0,0,0-8.365,8.365h0a8.365,8.365,0,0,0,8.365,8.365h55.676a8.365,8.365,0,0,0,8.365-8.365V1237.97a8.365,8.365,0,0,0-8.365-8.365h0A8.365,8.365,0,0,0,1910.985,1237.97Z" transform="translate(-1855.31 -1229.605)" fill="#8812fb"/>
          <rect id="с-7" data-name="с" width="36.203" height="85.094" transform="translate(64.04 0)" fill="#8812fb"/>
          <path id="с-8" data-name="с" d="M2050.175,1237.97v73.851a1.522,1.522,0,0,1-1.522,1.522h-45.789a8.365,8.365,0,0,0-8.365,8.365h0a8.365,8.365,0,0,0,8.365,8.365h55.676a8.365,8.365,0,0,0,8.365-8.365V1237.97a8.365,8.365,0,0,0-8.365-8.365h0A8.365,8.365,0,0,0,2050.175,1237.97Z" transform="translate(-1958.297 -1229.605)" fill="#130d5b"/>
        </g>
        <g id="Group_767" data-name="Group 767" transform="translate(0)">
          <g id="Group_743" data-name="Group 743" transform="translate(21.199 60.218)">
            <path id="Path_781" data-name="Path 781" d="M1793.211,1325.541c3.478,1.936,3.515,13.987,2.317,14.695-40.1,2.789-50.219,1.325-50.219,1.325l.5-6.825S1768.946,1327.444,1793.211,1325.541Z" transform="translate(-1721.06 -1285.488)" fill="#f37a50"/>
            <path id="Path_782" data-name="Path 782" d="M1958.97,1189.558c-6.159,9.85-31.766,36.5-35.95,36.88l-4.728-14.53s24.012-31.774,28.276-36.671C1953.93,1166.739,1969.056,1173.5,1958.97,1189.558Z" transform="translate(-1849.051 -1171.546)" fill="#f37a50"/>
            <g id="Group_742" data-name="Group 742" transform="translate(0 48.265)">
              <g id="Group_741" data-name="Group 741">
                <g id="Group_740" data-name="Group 740">
                  <g id="Group_739" data-name="Group 739">
                    <path id="Path_783" data-name="Path 783" d="M1669.466,1357.126a51.747,51.747,0,0,1,7.785.792l2.323,1.213-.246,3.947c-3.343,4.587-13.347,5.33-14.263,5.33-2.38,0-3.5.147-3.654-.185s-.551-2.485,2.912-2.6c4.346-.139,1.793-3.827-7.218-1.321-2.256.628-6.274-.8-4.647-2.262C1654.25,1360.428,1659.307,1356.855,1669.466,1357.126Z" transform="translate(-1652.079 -1357.112)" fill="#f37a50"/>
                  </g>
                </g>
              </g>
            </g>
          </g>
          <path id="Path_784" data-name="Path 784" d="M1991.4,965.621c-.741-10.085,2.175-18.994,10.216-23.532,8.15-4.6,18.361-.088,18.361-.088h0s8.643-3.075,16.474,5.553,1.908,16.22,5.112,22.512c1.9,3.726,11.546,4.494,9.054,16.631-.719,3.5-4.929,5.856-8.494,6.091-6.265.411-12.1-2.011-14.639.411-8.368,7.98-26.913,5.094-29.509-2.206-.8-2.264-17.487,2.117-15.822-13.3C1983,969.88,1992.063,974.632,1991.4,965.621Z" transform="translate(-1875.018 -940.022)" fill="#0d0c1a"/>
          <g id="Group_746" data-name="Group 746" transform="translate(123.801 55.754)">
            <g id="Group_745" data-name="Group 745">
              <g id="Group_744" data-name="Group 744">
                <path id="Path_785" data-name="Path 785" d="M2054.428,1156.828l13.244-2.445,4.966,6.608-10.555,21.641-15.525-13.177Z" transform="translate(-2046.559 -1154.383)" fill="#f37a50"/>
              </g>
            </g>
          </g>
          <g id="Group_749" data-name="Group 749" transform="translate(110.556 55.738)">
            <g id="Group_748" data-name="Group 748">
              <g id="Group_747" data-name="Group 747">
                <path id="Path_786" data-name="Path 786" d="M1999.581,1208.959c.226-4.117-6.428-21.026-2.925-29.537,2.551-6.846,6.813-18.339,12.032-20.257,2.463-.9,4.993-1.535,8.062-2.384,0,0-1.731,8.627,1.875,8.916,6.943.557,11.369-11.361,11.369-11.361,3.743-.358,20.914,5.284,20.906,6.694-.041,11.043-9.013,27.156-11.947,39.1-1.155,12.9,3.345,28.328,3.361,29.794,0,0-27.623,7.765-44-1.249C1997.974,1227.418,1999.268,1214.645,1999.581,1208.959Z" transform="translate(-1995.635 -1154.321)" fill="#e62552"/>
              </g>
            </g>
          </g>
          <path id="Path_787" data-name="Path 787" d="M1946.281,1394.047s6.1,15.385,7.585,25.07-6.906,15.9-6.906,15.9H1877.17s-7.471-12.117-5.319-20.484,7.1-9.7,7.1-9.7Z" transform="translate(-1793.203 -1275.958)" fill="#e62552"/>
          <path id="Path_788" data-name="Path 788" d="M1889.816,1433.573c8.91-1.257,34.771,8.787,45.8,30.61h-30.849Z" transform="translate(-1806.783 -1305.125)" fill="#de623c"/>
          <g id="Group_750" data-name="Group 750" transform="translate(0 128.081)">
            <path id="Path_789" data-name="Path 789" d="M1682.83,1440.862a24.76,24.76,0,0,1-3.118-4.436,7.7,7.7,0,0,0-12.408-1.453c-12.862,14.181-40.283,46.51-46.4,50.532-1.727,1.137-11.8,6.939-21.385,5.792,0,0-4.729,1.8-1.578,5.556,1.621,1.932,25.968,3.929,25.968,3.929l1.9-7.149c14.173-10.489,31.815-9.735,46.775-28.911C1680.824,1454.162,1682.83,1440.862,1682.83,1440.862Z" transform="translate(-1590.026 -1432.463)" fill="#de623c"/>
            <path id="Path_790" data-name="Path 790" d="M1599.532,1661.983l-9.8,6.359-1.346-1.605,7.947-7.411c-4.514-3.561-14.97-.589-14.97-.589-3.425-2.212-10.1-9.387-10.789-13.231,2.193-2.733,9.5,2.888,9.5,2.888-.268,1.218,2.039,5.435,3.875,6.155,7.977,1.721,15.928-.545,22.415-3.839C1606.361,1650.709,1611.782,1658.924,1599.532,1661.983Z" transform="translate(-1570.576 -1589.539)" fill="#201d40"/>
          </g>
          <g id="Group_751" data-name="Group 751" transform="translate(49.207 138.259)">
            <path id="Path_791" data-name="Path 791" d="M1825.552,1471.741a4.612,4.612,0,0,1,3.373,3.8c.7,4.949,4.3,14.973-.574,25.47-11.969,25.77-19.036,42.749-20.291,49.4,3.126,5.855-9.34,21.849-9.526,22.9l-8.973-2.808s5.149-7.659,7-10.657c4.414-7.141,5.136-15.9,5.854-22.7,3.063-29-2.2-47.308,18.779-64.319A4.9,4.9,0,0,1,1825.552,1471.741Z" transform="translate(-1781.812 -1471.594)" fill="#f37a50"/>
            <path id="Path_792" data-name="Path 792" d="M1790.484,1786.907l-.884,11.647-2.093.1-1.074-10.813c-5.569,1.43-9.546,11.546-9.546,11.546-3.835,1.382-13.589,2.34-17.063.556-.843-3.4,8.055-5.8,8.055-5.8.806.952,5.558,1.674,7.244.652,6.206-5.3,9.578-13,10.892-20.151C1786.015,1774.641,1795.48,1775.311,1790.484,1786.907Z" transform="translate(-1759.766 -1695.82)" fill="#201d40"/>
          </g>
          <g id="Group_754" data-name="Group 754" transform="translate(131.67 45.771)">
            <g id="Group_753" data-name="Group 753">
              <g id="Group_752" data-name="Group 752">
                <path id="Path_793" data-name="Path 793" d="M2080.162,1117.613l10.754-1.611-.857,9.983s-2.059,4.523-4.446,4.828l-8.8-2.383Z" transform="translate(-2076.815 -1116.002)" fill="#f37a50"/>
              </g>
            </g>
          </g>
          <g id="Group_758" data-name="Group 758" transform="translate(121.989 7.634)">
            <path id="Path_794" data-name="Path 794" d="M2073.326,994.689c-2.777,11.595-12.409,19.227-21.516,17.046s-14.239-13.348-11.462-24.943,12.409-19.227,21.516-17.046S2076.1,983.094,2073.326,994.689Z" transform="translate(-2039.594 -969.374)" fill="#f37a50"/>
            <path id="Path_795" data-name="Path 795" d="M2050.121,1041.354a1.628,1.628,0,1,1-.732-2.184A1.628,1.628,0,0,1,2050.121,1041.354Z" transform="translate(-2045.099 -1020.89)"/>
            <path id="Path_796" data-name="Path 796" d="M2098.574,1052.933a1.763,1.763,0,1,1-.792-2.364A1.763,1.763,0,0,1,2098.574,1052.933Z" transform="translate(-2080.761 -1029.314)"/>
            <g id="Group_755" data-name="Group 755" transform="translate(15.66 18.368)">
              <path id="Path_797" data-name="Path 797" d="M2103.9,1043.785a.611.611,0,0,1-.282-.291,4.669,4.669,0,0,0-3.294-2.281.613.613,0,0,1,.173-1.214,5.834,5.834,0,0,1,4.234,2.98.613.613,0,0,1-.83.806Z" transform="translate(-2099.802 -1039.994)" fill="#0d0c1a"/>
            </g>
            <g id="Group_756" data-name="Group 756" transform="translate(1.13 15.885)">
              <path id="Path_798" data-name="Path 798" d="M2044.28,1032.667a.614.614,0,0,1-.157-.985,4.3,4.3,0,0,1,4.272-1.048.613.613,0,0,1-.4,1.16,3.072,3.072,0,0,0-3.013.76A.614.614,0,0,1,2044.28,1032.667Z" transform="translate(-2043.94 -1030.448)" fill="#0d0c1a"/>
            </g>
            <path id="Path_799" data-name="Path 799" d="M2054.889,1061.414a16.331,16.331,0,0,1-2.531,2.4.646.646,0,0,0-.212.86c.689,1.222,2.7,2.228,3.935,2.752a.172.172,0,0,0,.181-.288,8.375,8.375,0,0,1-2-2.338.77.77,0,0,1,0-.7c.255-.5.764-1.533,1.108-2.385A.29.29,0,0,0,2054.889,1061.414Z" transform="translate(-2048.82 -1037.408)" fill="#de623c"/>
            <path id="Path_800" data-name="Path 800" d="M2146.181,1063.444c-2.213,1.722-2.865,4.585-1.456,6.4s4.345,1.883,6.558.161,2.864-4.585,1.455-6.4S2148.394,1061.722,2146.181,1063.444Z" transform="translate(-2116.831 -1038.055)" fill="#f37a50"/>
            <g id="Group_757" data-name="Group 757" transform="translate(29.695 26.44)">
              <path id="Path_801" data-name="Path 801" d="M2154.677,1075.848a.613.613,0,0,1-.216-.18,2.772,2.772,0,0,1-.214-3.4,2.954,2.954,0,0,1,3.236-1.111.613.613,0,0,1-.385,1.164,1.749,1.749,0,0,0-1.856.661,1.57,1.57,0,0,0,.2,1.946.613.613,0,0,1-.764.917Z" transform="translate(-2153.762 -1071.03)" fill="#de623c"/>
            </g>
            <path id="Path_802" data-name="Path 802" d="M2072.618,1094.989a.489.489,0,0,0-.449-.779,34.687,34.687,0,0,1-9.2,0,.489.489,0,0,0-.448.779,6.1,6.1,0,0,0,10.1,0Z" transform="translate(-2056.482 -1061.738)" fill="#fff"/>
          </g>
          <path id="Path_803" data-name="Path 803" d="M2092.414,987.388c-10.87-1.456-26.078-12.53-27.326-18.213,2.1-6.827,13.3-10.258,19.63-7.1S2097.019,978.8,2092.414,987.388Z" transform="translate(-1936.468 -955.465)" fill="#0d0c1a"/>
          <g id="Group_766" data-name="Group 766" transform="translate(150.955 22.295)">
            <g id="Group_761" data-name="Group 761" transform="translate(0 11.673)">
              <g id="Group_760" data-name="Group 760">
                <g id="Group_759" data-name="Group 759">
                  <path id="Path_804" data-name="Path 804" d="M2210.268,1078.97c-5.907-2.841-4.653-8.352-4.653-8.352-2.568.336-8.378,23.876-9.5,37.922-12.858-6.177-34.118-13.134-38.9-12.282,0,0-6.666.527-6.238,8.661.382,7.26,9.647,9.208,9.647,9.208s40.729,11.416,44.818,7.661C2211.81,1115.946,2208.868,1086.176,2210.268,1078.97Z" transform="translate(-2150.961 -1070.618)" fill="#f37a50"/>
                </g>
              </g>
            </g>
            <g id="Group_765" data-name="Group 765" transform="translate(51.79)">
              <g id="Group_764" data-name="Group 764">
                <g id="Group_763" data-name="Group 763">
                  <g id="Group_762" data-name="Group 762">
                    <path id="Path_805" data-name="Path 805" d="M2364.2,1042.806c-2.6,1.106-6.351.961-6.528,3.706l-6.152-.693-1.441-3.049c1.94-8.821,12.2-14.773,13.249-15.255,2.737-1.252,3.945-2.01,4.3-1.71s1.941,2.569-1.984,4.518c-4.925,2.447-.048,5.345,9-2.279,2.265-1.909,7.635-2.385,6.535.157C2379.966,1031,2376.029,1037.772,2364.2,1042.806Z" transform="translate(-2350.08 -1025.739)" fill="#f37a50"/>
                  </g>
                </g>
              </g>
            </g>
          </g>
        </g>
      </g>
      <g id="с-9" data-name="с" transform="translate(0 68.554)">
        <path id="с-10" data-name="с" d="M4.244,0h0A4.243,4.243,0,0,1,8.487,4.243V74.275a0,0,0,0,1,0,0H0a0,0,0,0,1,0,0V4.244A4.244,4.244,0,0,1,4.244,0Z" transform="translate(120.043 195.99) rotate(180)" fill="#0e6a41"/>
        <path id="с-11" data-name="с" d="M4.243,0h0A4.243,4.243,0,0,1,8.487,4.243V74.275a0,0,0,0,1,0,0H0a0,0,0,0,1,0,0V4.243A4.243,4.243,0,0,1,4.243,0Z" transform="translate(90.266 195.99) rotate(180)" fill="#130d5b"/>
        <path id="с-12" data-name="с" d="M491,1655.753a4.113,4.113,0,0,0,4.243,3.968h0a4.113,4.113,0,0,0,4.244-3.968v-70.307H491Z" transform="translate(-448.296 -1463.731)" fill="#130d5b"/>
        <path id="с-13" data-name="с" d="M4.243,0h0A4.243,4.243,0,0,1,8.487,4.243V74.275a0,0,0,0,1,0,0H0a0,0,0,0,1,0,0V4.243A4.243,4.243,0,0,1,4.243,0Z" transform="translate(21.419 195.99) rotate(180)" fill="#130d5b"/>
        <path id="с-14" data-name="с" d="M515.7,1127.616v89.47a1.843,1.843,0,0,0,1.843,1.843h55.474a10.134,10.134,0,0,1,10.134,10.134h0a10.133,10.133,0,0,1-10.134,10.134H505.564a10.133,10.133,0,0,1-10.134-10.134V1127.616a10.134,10.134,0,0,1,10.134-10.134h0A10.134,10.134,0,0,1,515.7,1127.616Z" transform="translate(-451.571 -1117.482)" fill="#8812fb"/>
        <rect id="с-15" data-name="с" width="43.859" height="103.091" transform="translate(53.993 103.091) rotate(180)" fill="#8812fb"/>
        <path id="с-16" data-name="с" d="M347.07,1127.616v89.47a1.843,1.843,0,0,0,1.844,1.843h55.473a10.134,10.134,0,0,1,10.134,10.134h0a10.133,10.133,0,0,1-10.134,10.134H336.936a10.133,10.133,0,0,1-10.134-10.134V1127.616a10.134,10.134,0,0,1,10.134-10.134h0A10.134,10.134,0,0,1,347.07,1127.616Z" transform="translate(-326.802 -1117.482)" fill="#130d5b"/>
      </g>
      <g id="c-4" data-name="c" transform="translate(13.717 0)">
        <g id="c-5" data-name="c" transform="translate(68.654 54.774)">
          <g id="Group_769" data-name="Group 769" transform="translate(51.514)">
            <path id="Path_806" data-name="Path 806" d="M847.548,1088.975c-2.759-2.874-5.947-4.095-5.99-9.314-.015-1.9.145-3.877.25-6.179.162-3.552.865-6.537,1.608-6.685,1.682-.336,2.232.589,2.5,2.688.209,1.623-.721,3.782.43,4.707,1.022.822,2.478,1.352,6.015-2.764,4.516-5.256,5.2-7.888,7.082-6.605,1.235.841-.8,3.639-4.96,8.691,3.119-1.748,6.9-9.79,9.2-7.687,1.67,1.527-5.672,9.013-7.881,10.507,4.643-1.82,7.915-8.615,9.207-7.922,2.633,1.588-2.973,8.12-7.03,10,4.37-.759,5.83-4.835,6.965-3.994,2.118,1.57-4.289,8.3-9.109,10.594C854.413,1085.695,847.548,1088.975,847.548,1088.975Z" transform="translate(-841.557 -1064.502)" fill="#f37a50"/>
            <path id="Path_807" data-name="Path 807" d="M859.349,1109.983a5.458,5.458,0,0,1-.242,4.779,5.06,5.06,0,0,1-3.4,1.956,3.736,3.736,0,0,0,4.17-1.407,4.394,4.394,0,0,0-.53-5.328Z" transform="translate(-852.028 -1098.154)" fill="#de623c"/>
          </g>
          <path id="c-6" data-name="c" d="M670.289,1133.222c9.439-7.177,23.112-23.128,23.112-23.128,5.417,2.371,8.277,8.363,8.277,8.363-6.532,23.542-26.8,43.056-36.018,44.466-8.417,1.286-29.729-39.321-19.389-59.015l4.322-.955C662.352,1108.731,670.289,1133.222,670.289,1133.222Z" transform="translate(-643.499 -1092.952)" fill="#c4204a"/>
        </g>
        <path id="Path_808" data-name="Path 808" d="M912.038,1775.341l10.068,2.551,4.112-8.968c-.428-.316-1.087-6.277-1.492-10.815l-16.251,2.241A122.905,122.905,0,0,0,912.038,1775.341Z" transform="translate(-770.903 -1522.931)" fill="#f37a50"/>
        <g id="Group_775" data-name="Group 775" transform="translate(137.805 245.048)">
          <g id="Group_770" data-name="Group 770" transform="translate(0 3.296)">
            <path id="Path_809" data-name="Path 809" d="M930.465,1818.083s3.482-5.854,7.893-6.222c0,0,8.325.477,11.245,3.978.917,1.1.565,3.446.2,4.948-.227.938-1.021,1.956-3.482,2.73-3.634,1.143-8.536,1.844-17.565-.5-10.833-2.808-12.562-1.652-16.565-2.942-4.149-1.337-2.816-6.408-1.684-11.348C910.508,1808.73,913.528,1814.775,930.465,1818.083Z" transform="translate(-909.368 -1808.73)" fill="#201d40"/>
          </g>
          <g id="Group_772" data-name="Group 772" transform="translate(0.231)">
            <g id="Group_771" data-name="Group 771">
              <path id="Path_810" data-name="Path 810" d="M927.807,1796.124a42.122,42.122,0,0,0,11.156,4.38c3.537.812,12.965,2.641,11.447,8.926-.227.938-1.022,1.956-3.482,2.73-3.634,1.143-8.535,1.844-17.565-.5-10.833-2.808-12.562-1.652-16.565-2.942-4.149-1.337-2.235-7.093-1.1-12.033h0c.1,1.254.682,4.544,8.209,7.491C922.152,1805.059,920.316,1795.151,927.807,1796.124Z" transform="translate(-910.255 -1796.057)" fill="#2c2858"/>
            </g>
          </g>
          <g id="Group_773" data-name="Group 773" transform="translate(15.463 1.984)">
            <path id="Path_811" data-name="Path 811" d="M969.733,1809.341a.856.856,0,0,0,.772-.647,4.529,4.529,0,0,1,4.077-3.3.855.855,0,0,0-.088-1.708,6.2,6.2,0,0,0-5.648,4.6.856.856,0,0,0,.887,1.06Z" transform="translate(-968.821 -1803.685)" fill="#494c7f"/>
          </g>
          <g id="Group_774" data-name="Group 774" transform="translate(19.434 3.575)">
            <path id="Path_812" data-name="Path 812" d="M985,1815.46a.856.856,0,0,0,.773-.647,4.53,4.53,0,0,1,4.076-3.3.855.855,0,0,0-.087-1.708,6.2,6.2,0,0,0-5.648,4.6.856.856,0,0,0,.887,1.06Z" transform="translate(-984.085 -1809.803)" fill="#494c7f"/>
          </g>
        </g>
        <path id="Path_813" data-name="Path 813" d="M763.854,1791.717l9.863,3.253,4.733-8.656c-.4-.345-1.821-6.642-1.906-11.2l-15.189,1.4A122.827,122.827,0,0,0,763.854,1791.717Z" transform="translate(-662.047 -1535.515)" fill="#f37a50"/>
        <path id="Path_814" data-name="Path 814" d="M620.654,1399.017c22.488,4.108,54.428,18.675,57.578,21.989,6.508,6.845,9.694,30.387,12.763,72.318l-19.681,1.314c-7.265-32.756-14.1-47.038-15.215-60.341,0,0-17.247,1.193-43.2-8.821-12.793-4.937-26.124-10.7-22.287-22.255C593.67,1394.012,599.211,1395.1,620.654,1399.017Z" transform="translate(-535.218 -1255.098)" fill="#201d40"/>
        <path id="Path_815" data-name="Path 815" d="M488.643,1404.232c18.684,1.93,43.6,23.31,46.755,26.624,6.508,6.845,7.327,30.22,10.4,72.151l-19.586,1.806c-3.172-21.723-12.441-46.612-12.414-62.562,0,0-17.532-3.8-44.671-9.9-14.846-3.339-19.3-5.639-22.14-15.333-.966-3.3-2.276-10.94-.794-12.645C452.744,1396.823,470.957,1402.405,488.643,1404.232Z" transform="translate(-428.36 -1258.354)" fill="#2c2858"/>
        <g id="Group_781" data-name="Group 781" transform="translate(98.268 249.372)">
          <g id="Group_776" data-name="Group 776" transform="translate(0 2.62)">
            <path id="Path_816" data-name="Path 816" d="M778.245,1833.489s3.884-5.594,8.311-5.651c0,0,8.27,1.062,10.937,4.759.838,1.161.321,3.477-.147,4.95-.292.92-1.157,1.879-3.666,2.478-3.706.885-8.644,1.239-17.487-1.732-10.608-3.563-12.414-2.531-16.317-4.1-4.045-1.626-2.358-6.591-.881-11.438C759,1822.756,761.582,1829,778.245,1833.489Z" transform="translate(-757.355 -1822.756)" fill="#201d40"/>
          </g>
          <g id="Group_778" data-name="Group 778" transform="translate(0.346)">
            <g id="Group_777" data-name="Group 777">
              <path id="Path_817" data-name="Path 817" d="M776.81,1813.252a42.119,42.119,0,0,0,10.821,5.154c3.471,1.059,12.747,3.546,10.79,9.71-.292.92-1.157,1.879-3.666,2.478-3.706.885-8.644,1.238-17.487-1.731-10.608-3.564-12.414-2.532-16.317-4.1-4.045-1.626-1.73-7.233-.253-12.081h0c.014,1.258.361,4.58,7.661,8.05C770.539,1821.767,769.4,1811.754,776.81,1813.252Z" transform="translate(-758.687 -1812.682)" fill="#2c2858"/>
            </g>
          </g>
          <g id="Group_779" data-name="Group 779" transform="translate(13.966 2.697)">
            <path id="Path_818" data-name="Path 818" d="M811.964,1828.709a.856.856,0,0,0,.773-.647,4.529,4.529,0,0,1,4.076-3.3.855.855,0,0,0-.087-1.708,6.2,6.2,0,0,0-5.649,4.6.855.855,0,0,0,.887,1.06Z" transform="translate(-811.052 -1823.053)" fill="#494c7f"/>
          </g>
          <g id="Group_780" data-name="Group 780" transform="translate(17.936 4.288)">
            <path id="Path_819" data-name="Path 819" d="M827.228,1834.826a.856.856,0,0,0,.773-.647,4.529,4.529,0,0,1,4.076-3.3.855.855,0,0,0-.088-1.708,6.2,6.2,0,0,0-5.648,4.6.856.856,0,0,0,.887,1.06Z" transform="translate(-826.316 -1829.17)" fill="#494c7f"/>
          </g>
        </g>
        <g id="Group_788" data-name="Group 788" transform="translate(25.721)">
          <path id="v-2" d="M538.76,1030.543h.009l7.455.027,1.688,17.607-8.7,4.595-9.28-4.543,1.5-17.659Z" transform="translate(-516.535 -984.601)" fill="#de623c"/>
          <g id="Group_787" data-name="Group 787">
            <g id="Group_786" data-name="Group 786">
              <path id="Path_820" data-name="Path 820" d="M499.681,897.79c-6.427,2.264-11.768-5.394-11.768-5.394-4.194.238-4.415-3.942-4.415-3.942a5.333,5.333,0,0,1-5.066-5.491c0-3.256,3.075-3.791,2.653-7.51-.339-2.984-4.03-9.655,5.145-12.291a7.615,7.615,0,0,1,4.311-8.011c6.492-3.121,9.107.615,12.275.682,3.537.074,10.056-4.624,12.734,2.926,0,0,4.811-.961,7.792,2.031a8.31,8.31,0,0,1,1.468,9.037s4.131.448,5.827,3.887a6.95,6.95,0,0,1-1.193,7.741,7.244,7.244,0,0,1-2.774,1.738c-1.511.607-.669,4.826-1.868,5.947a32.46,32.46,0,0,1-6.413,4.532Z" transform="translate(-478.432 -853.908)" fill="#2c2858"/>
              <path id="Path_821" data-name="Path 821" d="M510.24,917.341c1.229,12.288,11.569,22.275,21.219,21.31s14.958-12.518,13.729-24.805-10.049-21.466-19.7-20.5S509.011,905.054,510.24,917.341Z" transform="translate(-501.861 -883.036)" fill="#f37a50"/>
              <path id="Path_822" data-name="Path 822" d="M625.526,983.179a1.687,1.687,0,1,0,1.056-2.139A1.687,1.687,0,0,0,625.526,983.179Z" transform="translate(-587.201 -947.908)"/>
              <path id="Path_823" data-name="Path 823" d="M575.464,983.647a1.826,1.826,0,1,0,1.143-2.316A1.826,1.826,0,0,0,575.464,983.647Z" transform="translate(-550.155 -948.117)"/>
              <path id="Path_824" data-name="Path 824" d="M604.467,990.812c1.693,2.36,3.831,5.235,3.831,5.235a4.426,4.426,0,0,1-4.151,2.9c1.409-.691,2.779-1.756,2.065-3.648S604.467,990.812,604.467,990.812Z" transform="translate(-571.448 -955.204)" fill="#de623c"/>
              <g id="Group_782" data-name="Group 782" transform="translate(22.43 29.718)">
                <path id="Path_825" data-name="Path 825" d="M565.278,971.849a.842.842,0,0,1-.5-1.224c.625-1.1,2.46-3.008,4.93-2.308a.842.842,0,1,1-.459,1.619c-1.828-.518-2.994,1.5-3.006,1.518A.842.842,0,0,1,565.278,971.849Z" transform="translate(-564.669 -968.167)" fill="#2c2858"/>
              </g>
              <g id="Group_783" data-name="Group 783" transform="translate(37.697 29.817)">
                <path id="Path_826" data-name="Path 826" d="M623.875,970.629a.7.7,0,0,1-.288-1.182,3.46,3.46,0,0,1,2.5-.885,3.6,3.6,0,0,1,2.552,1.7.7.7,0,0,1-1.146.81,2.283,2.283,0,0,0-1.543-1.114,2.028,2.028,0,0,0-1.4.505A.7.7,0,0,1,623.875,970.629Z" transform="translate(-623.368 -968.549)" fill="#2c2858"/>
              </g>
              <path id="Path_827" data-name="Path 827" d="M534.142,889.578l-21.575-12.229-20.436,16.727,6.45,15.961c-1.084-7.787,4.148-6.338,6.085-9.105,1.963-2.806,2.261-6.584,8.725-4.71,0,0,3.99-4.252,7.389-.223,2.629,3.115,5.01,1.89,7.571,1.526,3.019-.429,2.94,2.612,4.736,2.123Z" transform="translate(-488.568 -871.252)" fill="#2c2858"/>
              <g id="Group_785" data-name="Group 785" transform="translate(3.177 31.368)">
                <path id="Path_828" data-name="Path 828" d="M498.51,976.3c2.038,2.069,2.318,5.1.626,6.765s-4.717,1.343-6.755-.725-2.318-5.1-.626-6.766S496.471,974.233,498.51,976.3Z" transform="translate(-490.647 -974.51)" fill="#f37a50"/>
                <g id="Group_784" data-name="Group 784" transform="translate(3.01 2.406)">
                  <path id="Path_829" data-name="Path 829" d="M504.981,989a.63.63,0,0,0,.246-.156,2.87,2.87,0,0,0,.681-3.459,3.059,3.059,0,0,0-3.172-1.58.635.635,0,1,0,.237,1.247,1.812,1.812,0,0,1,1.815.932,1.626,1.626,0,0,1-.468,1.971.635.635,0,0,0,.66,1.045Z" transform="translate(-502.22 -983.761)" fill="#de623c"/>
                </g>
              </g>
              <path id="Path_830" data-name="Path 830" d="M587.57,1032.968a.558.558,0,0,0-.469-.913,39.637,39.637,0,0,1-10.509-.506.558.558,0,0,0-.555.864,6.972,6.972,0,0,0,11.533.555Z" transform="translate(-550.579 -985.339)" fill="#fff"/>
            </g>
          </g>
        </g>
        <g id="v" transform="translate(17.832 62.063)">
          <path id="Path_831" data-name="Path 831" d="M448.1,1176.814s15.6,1.609,30.219,1.706a204.467,204.467,0,0,0,30.219-2.944s-1.965-26.847-1.764-37.158c.285-11.839-.759-27.537-.759-43.183,0,0-10.369-1.669-16.219-2.39-.951-.118-1.781-.208-2.431-.266,0,0-3.333,6.992-17.855,0a18.282,18.282,0,0,0-2.764-.011c-6.1.365-15.926,2.667-15.926,2.667,0,15.6-.63,30.9-.42,42.736C449.754,1148.533,448.1,1176.814,448.1,1176.814Z" transform="translate(-448.101 -1092.523)" fill="#e62552"/>
        </g>
        <g id="c-7" data-name="c" transform="translate(0 64.776)">
          <g id="Group_789" data-name="Group 789" transform="translate(56.165 22.008)">
            <path id="Path_832" data-name="Path 832" d="M597.648,1208.283c-1.178-3.6-3.4-5.961-1.288-10.45.77-1.631,1.724-3.261,2.763-5.19,1.6-2.976,3.438-5.242,4.135-5.063,1.579.406,1.669,1.426,1.034,3.335-.491,1.476-2.178,2.942-1.573,4.209.536,1.126,1.565,2.181,6.294.114,6.037-2.639,7.709-4.611,8.792-2.736.711,1.23-2.19,2.785-7.835,5.4,3.392-.21,9.951-5.538,11.052-2.789.8,2-8.577,5.381-11.086,5.749,4.728.356,10.334-4.114,11.155-2.987,1.6,2.447-5.9,5.729-10.149,5.668,4.056,1.153,6.989-1.736,7.615-.547,1.167,2.219-7.1,5.34-12.173,5.316Z" transform="translate(-595.482 -1187.571)" fill="#f37a50"/>
          </g>
          <path id="c-8" data-name="c" d="M403.083,1142.14c11.829-.826,32.009-6.669,32.009-6.669,3.229,4.953,2.336,11.532,2.336,11.532-18.371,16.106-46.019,21.313-54.5,17.436-7.745-3.539-2.278-50.684,17.168-61.484l.674.063C407.435,1114.3,403.083,1142.14,403.083,1142.14Z" transform="translate(-379.541 -1102.955)" fill="#c4204a"/>
        </g>
        <path id="Path_833" data-name="Path 833" d="M519.8,1092.569v0a10.353,10.353,0,0,0,4.454,3.976,21.76,21.76,0,0,0,10.2,2.084,11.707,11.707,0,0,0,5.963-2.22,6.924,6.924,0,0,0,2.431-3.566c-.951-.118-1.927-.266-2.577-.323,0,0-3.187,7.049-17.709.057A18.281,18.281,0,0,0,519.8,1092.569Z" transform="translate(-483.316 -1030.46)" fill="#c4204a"/>
      </g>
      <g id="Group_790" data-name="Group 790" transform="translate(47.872 90.925)">
        <path id="Path_834" data-name="Path 834" d="M675.108,1249.866H742.7l13.341-42.419a3.041,3.041,0,0,0-2.9-3.953H691.924a3.041,3.041,0,0,0-2.9,2.129Z" transform="translate(-632.387 -1203.494)" fill="#7f95db"/>
        <path id="Path_835" data-name="Path 835" d="M694.818,1249.866h67.587l13.341-42.419a3.041,3.041,0,0,0-2.9-3.953H711.634a3.042,3.042,0,0,0-2.9,2.129Z" transform="translate(-646.971 -1203.494)" fill="#95a6db"/>
        <path id="Path_836" data-name="Path 836" d="M847.213,1285.391a4.5,4.5,0,1,0,5.656-3.52A4.722,4.722,0,0,0,847.213,1285.391Z" transform="translate(-759.575 -1261.37)" fill="#b4c2f0"/>
        <path id="Path_837" data-name="Path 837" d="M515.181,1364.754h43.524v4.323H510.858A4.323,4.323,0,0,1,515.181,1364.754Z" transform="translate(-510.858 -1322.811)" fill="#7f95db"/>
      </g>
      <g id="Group_791" data-name="Group 791" transform="translate(326.073 92.176)">
        <path id="Path_838" data-name="Path 838" d="M1678.534,1253.422h-65.765l-12.981-41.275a2.959,2.959,0,0,1,2.822-3.846h59.562a2.959,2.959,0,0,1,2.823,2.071Z" transform="translate(-1594.66 -1208.301)" fill="#7f95db"/>
        <path id="Path_839" data-name="Path 839" d="M1659.355,1253.422h-65.766l-12.981-41.275a2.959,2.959,0,0,1,2.823-3.846h59.562a2.959,2.959,0,0,1,2.822,2.071Z" transform="translate(-1580.47 -1208.301)" fill="#95a6db"/>
        <path id="Path_840" data-name="Path 840" d="M1710.479,1287.99a4.378,4.378,0,1,1-5.5-3.425A4.594,4.594,0,0,1,1710.479,1287.99Z" transform="translate(-1670.311 -1264.616)" fill="#b4c2f0"/>
        <path id="Path_841" data-name="Path 841" d="M1926.115,1365.213h-42.351v4.206h46.557A4.206,4.206,0,0,0,1926.115,1365.213Z" transform="translate(-1804.879 -1324.401)" fill="#7f95db"/>
      </g>
      <g id="с-17" data-name="с" transform="translate(18.082 137.093)">
        <path id="с-18" data-name="с" d="M851.63,1392.542H404.9c-4.738,0-8.579-2.585-8.579-5.774h0c0-3.188,3.841-5.773,8.579-5.773H851.63c4.738,0,8.58,2.585,8.58,5.773h0C860.21,1389.957,856.369,1392.542,851.63,1392.542Z" transform="translate(-396.323 -1380.996)" fill="#617ac9"/>
      </g>
      <g id="Group_792" data-name="Group 792" transform="translate(228.372 86.207)">
        <path id="Path_842" data-name="Path 842" d="M1282.664,1233.851h-75.017l-2.8-43.192a4.983,4.983,0,0,1,4.973-5.306h70.676a4.984,4.984,0,0,1,4.973,5.307Z" transform="translate(-1204.835 -1185.353)" fill="#b4c2f0"/>
        <path id="Path_843" data-name="Path 843" d="M1282.664,1243.031h-75.017l-2.8-43.192a4.983,4.983,0,0,1,4.973-5.306h70.676a4.984,4.984,0,0,1,4.973,5.306Z" transform="translate(-1204.835 -1192.145)" fill="#95a6db"/>
        <path id="Path_844" data-name="Path 844" d="M1346.946,1283.057a4.471,4.471,0,1,1-4.471-4.471A4.471,4.471,0,0,1,1346.946,1283.057Z" transform="translate(-1303.367 -1254.337)" fill="#b4c2f0"/>
      </g>
      <path id="c-9" data-name="c" d="M1490.255,1328.229a2.1,2.1,0,0,1,.469-.454c-.031-.021-.063-.041-.094-.063-1.825-1.32-2.535-3.451-1.588-4.759a2.155,2.155,0,0,1,.567-.534,3.014,3.014,0,0,1-.312-3.465,2.263,2.263,0,0,1,1.082-.792,3.013,3.013,0,0,1-.311-3.635,3.533,3.533,0,0,1,5.64,4.081,2.526,2.526,0,0,1-.9.768c1.453,1.32,1.956,3.174,1.1,4.357a2.158,2.158,0,0,1-.567.534,3.014,3.014,0,0,1,.312,3.465,2.242,2.242,0,0,1-.989.757,2.576,2.576,0,0,1,.358,3.186,2.984,2.984,0,0,1-4.764-3.446Z" transform="translate(-1186.439 -1193.919)" fill="#f37a50"/>
      <path id="c-10" data-name="c" d="M1021.181,1372.245a2.092,2.092,0,0,1-.43-.491c-.023.03-.044.061-.068.091-1.411,1.755-3.575,2.357-4.834,1.344a2.171,2.171,0,0,1-.5-.593,3.014,3.014,0,0,1-3.476.136,2.261,2.261,0,0,1-.735-1.121,3.013,3.013,0,0,1-3.646.126,3.533,3.533,0,0,1,4.362-5.426,2.518,2.518,0,0,1,.721.941c1.393-1.384,3.27-1.792,4.408-.877a2.162,2.162,0,0,1,.5.594,3.014,3.014,0,0,1,3.476-.136,2.241,2.241,0,0,1,.706,1.026,2.576,2.576,0,0,1,3.2-.2,2.984,2.984,0,0,1-3.683,4.582Z" transform="translate(-829.725 -1232.622)" fill="#f37a50"/>
      <path id="Path_845" data-name="Path 845" d="M442.722,1533.46l-9.952-.052,26.175-117.528,9.517,2Z" transform="translate(-405.209 -1269.715)" fill="#617ac9"/>
      <path id="Path_846" data-name="Path 846" d="M1985.627,1533.46l9.952-.052L1969.4,1415.881l-9.517,2Z" transform="translate(-1535.13 -1269.715)" fill="#617ac9"/>
    </g>
    <g id="Group_794" data-name="Group 794" transform="translate(482.913 174.626)">
      <path id="Path_847" data-name="Path 847" d="M1722.862,385.221l5.878,38.423a2.678,2.678,0,0,1-2.242,3.055l-66.778,10.217a2.678,2.678,0,0,1-3.053-2.245l-5.878-38.423a2.678,2.678,0,0,1,2.242-3.055l66.778-10.217A2.678,2.678,0,0,1,1722.862,385.221Z" transform="translate(-1650.759 -382.945)" fill="#f3bc3d"/>
      <path id="Path_848" data-name="Path 848" d="M1722.862,385.222l.325,2.124-27.082,26.507a8.536,8.536,0,0,1-9.98,1.614l-35.149-18.006-.186-1.213a2.68,2.68,0,0,1,2.244-3.055l66.773-10.216A2.68,2.68,0,0,1,1722.862,385.222Z" transform="translate(-1650.759 -382.946)" fill="#f3cd75"/>
    </g>
    <g id="Group_795" data-name="Group 795" transform="translate(210.007 231.569)">
      <path id="Rectangle_393" data-name="Rectangle 393" d="M24.575,0H64.128A24.575,24.575,0,0,1,88.7,24.575v0A24.575,24.575,0,0,1,64.129,49.151H24.575A24.575,24.575,0,0,1,0,24.575v0A24.575,24.575,0,0,1,24.575,0Z" transform="translate(88.704 49.151) rotate(180)" fill="#fff"/>
      <path id="Path_849" data-name="Path 849" d="M649.8,782.382v18.3a1.4,1.4,0,0,0,2.641.633l9.617-18.93Z" transform="translate(-637.234 -735.434)" fill="#fff"/>
      <path id="Path_850" data-name="Path 850" d="M633.146,635.287h64.74a4.508,4.508,0,0,0,4.508-4.508h0a4.508,4.508,0,0,0-4.508-4.508h-64.74a4.508,4.508,0,0,0-4.508,4.508h0A4.508,4.508,0,0,0,633.146,635.287Z" transform="translate(-621.579 -619.926)" fill="#e3eaff"/>
      <path id="Path_851" data-name="Path 851" d="M633.146,690.269h64.74a4.508,4.508,0,0,0,4.508-4.508h0a4.508,4.508,0,0,0-4.508-4.508h-64.74a4.508,4.508,0,0,0-4.508,4.508h0A4.508,4.508,0,0,0,633.146,690.269Z" transform="translate(-621.579 -660.608)" fill="#e3eaff"/>
      <path id="Rectangle_394" data-name="Rectangle 394" d="M4.508,0H44.73a4.508,4.508,0,0,1,4.508,4.508v0A4.508,4.508,0,0,1,44.73,9.016H4.508A4.508,4.508,0,0,1,0,4.508v0A4.508,4.508,0,0,1,4.508,0Z" transform="translate(56.296 43.962) rotate(-180)" fill="#e3eaff"/>
    </g>
    <g id="Group_796" data-name="Group 796" transform="translate(293.028 244.859)">
      <rect id="Rectangle_395" data-name="Rectangle 395" width="95.975" height="62.442" rx="31.221" transform="translate(0 0)" fill="#cdd8fa"/>
      <path id="Path_852" data-name="Path 852" d="M1199.708,883.885v19.8a1.511,1.511,0,0,1-2.858.684l-10.405-20.482Z" transform="translate(-1117.325 -823.826)" fill="#cdd8fa"/>
    </g>
    <g id="Group_799" data-name="Group 799" transform="translate(540.389 110.059)">
      <g id="Group_798" data-name="Group 798" transform="translate(0 0)">
        <path id="Path_853" data-name="Path 853" d="M1960.331,282.546l-82.139-32.094a10.143,10.143,0,0,1-5.756-13.138l37.573-96.158a10.142,10.142,0,0,1,13.138-5.756l82.139,32.095a10.142,10.142,0,0,1,5.756,13.138l-37.572,96.158A10.142,10.142,0,0,1,1960.331,282.546Z" transform="translate(-1871.738 -134.701)" fill="#130d5b"/>
        <g id="Group_797" data-name="Group 797" transform="translate(21.644 28.812)">
          <rect id="Rectangle_396" data-name="Rectangle 396" width="8.684" height="77.067" transform="matrix(0.931, 0.364, -0.364, 0.931, 36.804, 6.403)" fill="#fff"/>
          <rect id="Rectangle_397" data-name="Rectangle 397" width="8.683" height="77.067" transform="translate(48.884 11.123) rotate(21.342)" fill="#fff"/>
          <rect id="Rectangle_398" data-name="Rectangle 398" width="8.684" height="77.067" transform="translate(60.966 15.844) rotate(21.344)" fill="#fff"/>
          <rect id="Rectangle_399" data-name="Rectangle 399" width="8.684" height="77.067" transform="translate(73.045 20.564) rotate(21.341)" fill="#fff"/>
          <rect id="Rectangle_400" data-name="Rectangle 400" width="8.684" height="77.067" transform="matrix(0.931, 0.364, -0.364, 0.931, 85.127, 25.285)" fill="#fff"/>
          <rect id="Rectangle_401" data-name="Rectangle 401" width="8.684" height="4.071" transform="translate(39.305 0) rotate(21.341)" fill="#fff"/>
          <rect id="Rectangle_402" data-name="Rectangle 402" width="8.684" height="4.071" transform="matrix(0.931, 0.364, -0.364, 0.931, 24.854, 1.734)" fill="#fff"/>
          <rect id="Rectangle_403" data-name="Rectangle 403" width="8.684" height="4.07" transform="matrix(0.931, 0.364, -0.364, 0.931, 20.18, 13.698)" fill="#fff"/>
          <rect id="Rectangle_404" data-name="Rectangle 404" width="8.684" height="4.071" transform="matrix(0.931, 0.364, -0.364, 0.931, 15.505, 25.661)" fill="#fff"/>
          <rect id="Rectangle_405" data-name="Rectangle 405" width="8.684" height="4.07" transform="matrix(0.931, 0.364, -0.364, 0.931, 10.831, 37.625)" fill="#fff"/>
          <rect id="Rectangle_406" data-name="Rectangle 406" width="8.684" height="4.07" transform="matrix(0.931, 0.364, -0.364, 0.931, 10.831, 37.625)" fill="#fff"/>
          <rect id="Rectangle_407" data-name="Rectangle 407" width="8.684" height="4.071" transform="translate(6.156 49.589) rotate(21.341)" fill="#fff"/>
          <rect id="Rectangle_408" data-name="Rectangle 408" width="8.684" height="4.071" transform="translate(1.481 61.552) rotate(21.341)" fill="#fff"/>
          <rect id="Rectangle_409" data-name="Rectangle 409" width="8.683" height="4.071" transform="matrix(0.931, 0.364, -0.364, 0.931, 51.386, 4.72)" fill="#fff"/>
          <rect id="Rectangle_410" data-name="Rectangle 410" width="8.684" height="4.071" transform="matrix(0.931, 0.364, -0.364, 0.931, 63.467, 9.441)" fill="#fff"/>
          <rect id="Rectangle_411" data-name="Rectangle 411" width="8.683" height="4.071" transform="translate(75.548 14.161) rotate(21.344)" fill="#fff"/>
          <rect id="Rectangle_412" data-name="Rectangle 412" width="8.684" height="4.071" transform="matrix(0.931, 0.364, -0.364, 0.931, 87.629, 18.881)" fill="#fff"/>
        </g>
        <path id="Path_854" data-name="Path 854" d="M2146.285,207.806l-62.943-24.594a4.751,4.751,0,0,1-2.7-6.155h0a4.751,4.751,0,0,1,6.155-2.7l62.944,24.594a4.752,4.752,0,0,1,2.7,6.155h0A4.752,4.752,0,0,1,2146.285,207.806Z" transform="translate(-2026.067 -163.803)" fill="#fff"/>
      </g>
    </g>
    <g id="Group_801" data-name="Group 801" transform="translate(301.741 228.919)">
      <path id="Path_855" data-name="Path 855" d="M1097.862,833.065a7.221,7.221,0,0,1-.409,2.395c-1.333,3.829-5.786,6.642-11.074,6.642s-9.74-2.812-11.073-6.642a7.218,7.218,0,0,1-.408-2.395Z" transform="translate(-1043.504 -770.284)" fill="#95a6db"/>
      <path id="Path_856" data-name="Path 856" d="M1097.862,833.065a7.221,7.221,0,0,1-.409,2.395h-22.147a7.218,7.218,0,0,1-.408-2.395Z" transform="translate(-1043.504 -770.284)" fill="#7f95db"/>
      <path id="Path_857" data-name="Path 857" d="M1074.684,615.734a24.046,24.046,0,1,0-43.05,14.731,30.1,30.1,0,0,1,6.38,18.449v.118h25.249v-.118a30.185,30.185,0,0,1,6.4-18.471A23.936,23.936,0,0,0,1074.684,615.734Z" transform="translate(-1007.763 -591.689)" fill="#f3bc3d"/>
      <g id="Group_800" data-name="Group 800" transform="translate(31.736 17.642)">
        <path id="Path_858" data-name="Path 858" d="M1090.989,696.5a.616.616,0,0,1-.581-.817c.028-.082,2.864-8.251,4.924-16.57,3.652-14.745,1.773-17.142.8-17.488-2.874-1.017-5.162.488-6.576,1.93a12.244,12.244,0,0,0-1.188,1.423,23.363,23.363,0,0,1,1.631,3.474c1.273,3.4,1.611,6.579.905,8.5a3.017,3.017,0,0,1-3.262,2.115,3.484,3.484,0,0,1-3.111-2.462,11.543,11.543,0,0,1,.229-6.94,18.54,18.54,0,0,1,2.159-4.741,11.915,11.915,0,0,0-2.9-3.273c-1.582-1.154-3.068-1.2-4.417-.15-2.785,2.177-2.891,8.724-.308,18.933a135.347,135.347,0,0,0,4.943,15.22.615.615,0,0,1-1.14.46,136.551,136.551,0,0,1-4.992-15.367c-2.753-10.877-2.5-17.678.74-20.214,1.782-1.393,3.877-1.349,5.9.125a12.732,12.732,0,0,1,2.922,3.2,13,13,0,0,1,1.008-1.163c2.352-2.4,5.145-3.191,7.864-2.228,1.693.6,2.387,2.878,2.123,6.966a72.144,72.144,0,0,1-2.137,11.984c-2.074,8.373-4.926,16.589-4.955,16.672A.616.616,0,0,1,1090.989,696.5Zm-3.375-30.371a17.447,17.447,0,0,0-1.679,3.884,10.506,10.506,0,0,0-.258,6.159,2.275,2.275,0,0,0,2.053,1.669,1.789,1.789,0,0,0,2.016-1.314C1090.561,674.312,1089.572,669.789,1087.615,666.128Z" transform="translate(-1076.211 -659.519)" fill="#fff"/>
      </g>
      <path id="Rectangle_413" data-name="Rectangle 413" d="M4.626,0h20.8a4.626,4.626,0,0,1,4.626,4.626v0a4.626,4.626,0,0,1-4.626,4.626H4.626A4.626,4.626,0,0,1,0,4.626v0A4.626,4.626,0,0,1,4.626,0Z" transform="translate(27.85 54.316)" fill="#95a6db"/>
      <path id="Path_859" data-name="Path 859" d="M1247.97,676.41h-7.862a2.026,2.026,0,0,1-2.026-2.026h0a2.026,2.026,0,0,1,2.026-2.026h7.862a2.026,2.026,0,0,1,2.026,2.026h0A2.026,2.026,0,0,1,1247.97,676.41Z" transform="translate(-1164.245 -651.375)" fill="#f3bc3d"/>
      <path id="Path_860" data-name="Path 860" d="M964.084,676.41h-7.862a2.026,2.026,0,0,1-2.026-2.026h0a2.026,2.026,0,0,1,2.026-2.026h7.862a2.026,2.026,0,0,1,2.026,2.026h0A2.026,2.026,0,0,1,964.084,676.41Z" transform="translate(-954.196 -651.375)" fill="#f3bc3d"/>
      <path id="Path_861" data-name="Path 861" d="M991.351,600.088l-6.257-4.761a2.026,2.026,0,0,1-.385-2.839h0a2.026,2.026,0,0,1,2.839-.385l6.257,4.761a2.026,2.026,0,0,1,.385,2.839h0A2.026,2.026,0,0,1,991.351,600.088Z" transform="translate(-976.466 -591.688)" fill="#f3bc3d"/>
      <path id="Path_862" data-name="Path 862" d="M1215.866,600.088l6.257-4.761a2.026,2.026,0,0,0,.385-2.839h0a2.026,2.026,0,0,0-2.839-.385l-6.257,4.761a2.026,2.026,0,0,0-.385,2.839h0A2.026,2.026,0,0,0,1215.866,600.088Z" transform="translate(-1145.4 -591.688)" fill="#f3bc3d"/>
      <path id="Path_863" data-name="Path 863" d="M991.351,744.8l-6.257,4.761a2.026,2.026,0,0,0-.385,2.839h0a2.026,2.026,0,0,0,2.839.385l6.257-4.761a2.026,2.026,0,0,0,.385-2.839h0A2.026,2.026,0,0,0,991.351,744.8Z" transform="translate(-976.466 -704.667)" fill="#f3bc3d"/>
      <path id="Path_864" data-name="Path 864" d="M1215.866,744.8l6.257,4.761a2.026,2.026,0,0,1,.385,2.839h0a2.026,2.026,0,0,1-2.839.385l-6.257-4.761a2.026,2.026,0,0,1-.385-2.839h0A2.026,2.026,0,0,1,1215.866,744.8Z" transform="translate(-1145.4 -704.667)" fill="#f3bc3d"/>
    </g>
    <g id="Group_802" data-name="Group 802" transform="translate(321.093 138.879)">
      <path id="Path_869" data-name="Path 869" d="M14.178,0H73.9A14.178,14.178,0,0,1,88.075,14.178V46.894A14.177,14.177,0,0,1,73.9,61.071H14.178A14.178,14.178,0,0,1,0,46.894V14.178A14.178,14.178,0,0,1,14.178,0Z" transform="translate(0 0)" fill="#130d5b"/>
      <path id="Rectangle_415" data-name="Rectangle 415" d="M4.608,0H65.552A4.608,4.608,0,0,1,70.16,4.608v0a4.608,4.608,0,0,1-4.608,4.608H4.608A4.608,4.608,0,0,1,0,4.608v0A4.608,4.608,0,0,1,4.608,0Z" transform="translate(4.82 11.415)" fill="#fff"/>
      <path id="Rectangle_416" data-name="Rectangle 416" d="M2.3,0H40.029a2.3,2.3,0,0,1,2.3,2.3v0a2.3,2.3,0,0,1-2.3,2.3H2.3A2.3,2.3,0,0,1,0,2.3v0A2.3,2.3,0,0,1,2.3,0Z" transform="translate(4.82 28.137)" fill="#fff"/>
      <rect id="Rectangle_417" data-name="Rectangle 417" width="30.204" height="4.608" rx="2.304" transform="translate(4.82 46.697)" fill="#fff"/>
      <path id="Rectangle_418" data-name="Rectangle 418" d="M2.3,0H48.939a2.3,2.3,0,0,1,2.3,2.3v0a2.3,2.3,0,0,1-2.3,2.3H2.3A2.3,2.3,0,0,1,0,2.3v0A2.3,2.3,0,0,1,2.3,0Z" transform="translate(4.82 36.832)" fill="#fff"/>
    </g>
    <g id="Group_804" data-name="Group 804" transform="translate(409.167 194.253)">
      <g id="Group_803" data-name="Group 803" transform="translate(0 0)">
        <path id="Path_865" data-name="Path 865" d="M1273.427,434.906l2.1,7.386q-.831.062-1.67.047c-19.91.531-26.884-27.112-17.158-26.779a3.7,3.7,0,0,1,3.3,4.063,13.9,13.9,0,0,0,12.4,15.236C1272.748,434.882,1273.089,434.9,1273.427,434.906Z" transform="translate(-1252.355 -399.701)" fill="#8812fb"/>
        <path id="Path_866" data-name="Path 866" d="M1322.118,378.117a19.216,19.216,0,0,1-.7,3.787l-7.481-1.335c2.5-7.485-1.006-17.021-11.579-18.446a13.825,13.825,0,0,0-7.918,1.537c-4.367,2.185-7.73-4.144-3.472-6.539C1305.386,349,1324.259,361.64,1322.118,378.117Z" transform="translate(-1279.471 -354.596)" fill="#130d5b"/>
        <path id="Path_867" data-name="Path 867" d="M1354.246,455.792a21.63,21.63,0,0,1-18.771,15.283l-2.1-7.386a13.279,13.279,0,0,0,13.392-9.231Z" transform="translate(-1312.301 -428.484)" fill="#8812fb"/>
      </g>
      <path id="Path_868" data-name="Path 868" d="M1322.493,417.545a6.717,6.717,0,1,1-6.718-6.717A6.718,6.718,0,0,1,1322.493,417.545Z" transform="translate(-1294.31 -396.202)" fill="#8812fb"/>
    </g>
  </g>
</svg>
