<svg xmlns="http://www.w3.org/2000/svg" xmlns:xlink="http://www.w3.org/1999/xlink" viewBox="0 0 641.72 259.83"><defs><style>.cls-1{fill:url(#linear-gradient);}.cls-2,.cls-9{fill:#130d5b;}.cls-3{fill:url(#linear-gradient-2);}.cls-4{fill:#8812fb;}.cls-5{opacity:0.42;fill:url(#linear-gradient-3);}.cls-5,.cls-9{isolation:isolate;}.cls-6{fill:url(#linear-gradient-4);}.cls-7{fill:url(#linear-gradient-5);}.cls-8{fill:none;}.cls-9{font-size:78.39px;font-family:Montserrat-SemiBold, Montserrat;font-weight:600;letter-spacing:0.09em;}.cls-10{letter-spacing:0.09em;}.cls-11{letter-spacing:0.1em;}</style><linearGradient id="linear-gradient" x1="61.52" y1="168.5" x2="167.53" y2="168.5" gradientTransform="matrix(1, 0, 0, -1, 0, 262)" gradientUnits="userSpaceOnUse"><stop offset="0" stop-color="#8a0bff"/><stop offset="1" stop-color="#2a0056"/></linearGradient><linearGradient id="linear-gradient-2" x1="130.24" y1="75" x2="130.24" y2="248.22" gradientTransform="matrix(1, 0, 0, -1, 0, 262)" gradientUnits="userSpaceOnUse"><stop offset="0" stop-color="#a553ff"/><stop offset="1" stop-color="#ae38ff"/></linearGradient><linearGradient id="linear-gradient-3" x1="75.81" y1="153.74" x2="169.88" y2="107.46" gradientTransform="matrix(1, 0, 0, -1, 0, 262)" gradientUnits="userSpaceOnUse"><stop offset="0" stop-color="#8a0bff"/><stop offset="1" stop-color="#2a0056" stop-opacity="0"/></linearGradient><linearGradient id="linear-gradient-4" y1="95.7" x2="106" y2="95.7" gradientTransform="matrix(1, 0, 0, -1, 0, 262)" gradientUnits="userSpaceOnUse"><stop offset="0" stop-color="#3d0056"/><stop offset="1" stop-color="#ff0ba2"/></linearGradient><linearGradient id="linear-gradient-5" x1="37.3" y1="16" x2="37.3" y2="189.22" gradientTransform="matrix(1, 0, 0, -1, 0, 262)" gradientUnits="userSpaceOnUse"><stop offset="0" stop-color="#df38ff"/><stop offset="1" stop-color="#ff39ff"/></linearGradient></defs><title>Asset 2</title><g id="Layer_2" data-name="Layer 2"><g id="Layer_1-2" data-name="Layer 1"><g id="Layer_2-2" data-name="Layer 2"><g id="OBJECTS"><path class="cls-1" d="M92.07,0H61.52l62.84,122.86L92.94,187h37a14.47,14.47,0,0,0,13-8.12l22.14-45.22a24.1,24.1,0,0,0-.19-21.58L114.6,13.78A25.31,25.31,0,0,0,92.07,0Z"/><path class="cls-2" d="M92.07,0H61.52l62.84,122.86L92.94,187h37a14.47,14.47,0,0,0,13-8.12l22.14-45.22a24.1,24.1,0,0,0-.19-21.58L114.6,13.78A25.31,25.31,0,0,0,92.07,0Z"/><path class="cls-3" d="M114.6,13.78c25.06,49,27,73.85,9.76,109.08L92.94,187h37a14.47,14.47,0,0,0,13-8.12l22.14-45.22a24.1,24.1,0,0,0-.19-21.58Z"/><path class="cls-4" d="M114.6,13.78c25.06,49,27,73.85,9.76,109.08L92.94,187h37a14.47,14.47,0,0,0,13-8.12l22.14-45.22a24.1,24.1,0,0,0-.19-21.58Z"/><path class="cls-5" d="M164.9,112.12,150.71,84.38c1,15.89-2.87,30.39-11.13,47.25L112.45,187h17.49a14.47,14.47,0,0,0,13-8.12l22.14-45.22A24.11,24.11,0,0,0,164.9,112.12Z"/><path class="cls-6" d="M75.48,259.83H106L43.19,137,74.61,72.78h-37a14.47,14.47,0,0,0-13,8.12L2.46,126.13a24.11,24.11,0,0,0,.18,21.57L52.94,246A25.32,25.32,0,0,0,75.48,259.83Z"/><path class="cls-2" d="M75.48,259.83H106L43.19,137,74.61,72.78h-37a14.47,14.47,0,0,0-13,8.12L2.46,126.13a24.11,24.11,0,0,0,.18,21.57L52.94,246A25.32,25.32,0,0,0,75.48,259.83Z"/><path class="cls-7" d="M52.94,246c-25-49-27-73.85-9.75-109.08L74.61,72.78h-37a14.47,14.47,0,0,0-13,8.12L2.46,126.13a24.11,24.11,0,0,0,.18,21.57Z"/><path class="cls-4" d="M52.94,246c-25-49-27-73.85-9.75-109.08L74.61,72.78h-37a14.47,14.47,0,0,0-13,8.12L2.46,126.13a24.11,24.11,0,0,0,.18,21.57Z"/><path class="cls-8" d="M2.64,147.7l14.2,27.75c-1-15.9,2.87-30.39,11.12-47.25L55.1,72.78H37.61a14.47,14.47,0,0,0-13,8.12L2.46,126.13A24.11,24.11,0,0,0,2.64,147.7Z"/><text class="cls-9" transform="translate(202.11 154.67)">TU<tspan class="cls-10" x="122.68" y="0">T</tspan><tspan class="cls-11" x="176.93" y="0">ORAS</tspan></text></g></g></g></g></svg>